<?xml version="1.0" encoding="UTF-8"?>
<svg width="1840px" height="800px" viewBox="0 0 1840 800" version="1.1" xmlns="http://www.w3.org/2000/svg" xmlns:xlink="http://www.w3.org/1999/xlink">
    <!-- Generator: Sketch 42 (36781) - http://www.bohemiancoding.com/sketch -->
    <title>bg</title>
    <desc>Created with Sketch.</desc>
    <defs>
        <path d="M1093.45321,432.936948 L1113.61787,446.205324 C1117.46698,445.777306 1121.43897,445.55336 1125.5,445.55336 C1160.57008,445.55336 1189,462.254502 1189,482.856405 C1189,503.458309 1160.57008,520.159451 1125.5,520.159451 C1113.938,520.159451 1103.09772,518.344191 1093.75997,515.172354 L1107.75477,607.532814 L1036.85385,611.101284 L1041.08965,538.369052 L995.698384,490.795095 C993.685616,490.940572 991.614395,491.016447 989.5,491.016447 C970.446148,491.016447 954.89833,484.854911 954.037559,477.121251 C947.793396,497.070442 927.364532,511.697779 903.126437,511.697779 C896.633454,511.697779 890.413827,510.648099 884.667011,508.727625 C881.394551,514.658914 877.069943,520.042665 871.911173,524.683912 L886.756106,610.155275 L842.46432,609.299447 L848.292255,538.505682 C840.699843,541.13468 832.446225,542.576494 823.816092,542.576494 C809.408244,542.576494 796.049805,538.557916 785.065485,531.705581 L792.942529,610.594929 L759.04026,609.455454 L763.264167,520.205563 C762.362623,520.237839 761.45361,520.254217 760.537961,520.254217 C744.494579,520.254217 730.488413,515.226187 723.002889,507.754612 L680.387885,528.069342 L692.030007,607.097924 L632.97154,610.155275 L642.803796,436.504086 C629.446835,441.501924 614.064119,444.349099 597.691974,444.349099 C597.649882,444.349099 597.607797,444.34908 597.565718,444.349042 C591.930484,459.927938 579.889371,472.805193 564.324439,480.323246 C550.739207,508.736977 519.870858,528.583558 483.958445,528.608449 L492.942529,618.584942 L459.04026,617.445467 L463.34974,526.387451 C435.171996,520.178237 412.275156,501.478891 401.968435,477.010673 C376.470762,473.057438 357,451.84972 357,426.280651 C357,420.413142 358.025323,414.775299 359.913511,409.522927 C356.698338,404.310981 354.264567,398.635762 352.759169,392.632795 C347.770326,392.93616 342.676356,393.092892 337.5,393.092892 C334.498433,393.092892 331.524568,393.040193 328.582835,392.936763 C311.923112,417.841809 282.286186,435.702101 247.453207,439.928209 L267.617866,453.196585 C271.466983,452.768567 275.438973,452.544621 279.5,452.544621 C314.570082,452.544621 343,469.245763 343,489.847666 C343,510.449569 314.570082,527.150712 279.5,527.150712 C267.937997,527.150712 257.097718,525.335452 247.759967,522.163615 L261.754774,614.524075 L190.853854,618.092545 L195.089652,545.360313 L149.698384,497.786356 C147.685616,497.931833 145.614395,498.007707 143.5,498.007707 C123.893891,498.007707 108,491.483824 108,483.436205 C108,477.836426 115.695508,472.974409 126.982428,470.534742 C126.340191,469.438254 126,468.293496 126,467.116123 C126,459.068505 141.893891,452.544621 161.5,452.544621 C181.106109,452.544621 197,459.068505 197,467.116123 C197,472.715902 189.304492,477.577919 178.017572,480.017587 C178.659809,481.114074 179,482.258833 179,483.436205 C179,489.384574 170.316572,494.500469 157.868961,496.764714 L196.286233,524.813997 L201.376996,437.401282 C188.938603,434.45259 177.378747,429.722963 167.105054,423.557597 C161.054752,424.221666 154.839154,424.567337 148.5,424.567337 C86.9202504,424.567337 37,391.947918 37,351.709826 C37,332.778874 48.0496087,315.534279 66.164465,302.579544 C60.2684917,293.699945 57,283.902673 57,273.606574 C57,233.368482 106.92025,200.749064 168.5,200.749064 C213.992041,200.749064 253.120892,218.551163 270.460813,244.075712 C327.374147,246.314499 372,267.553534 372,293.423817 C372,294.421529 371.933627,295.412352 371.802735,296.395463 C386.224021,298.465157 399.360743,301.804713 410.545347,306.117515 C410.97975,273.226648 439.023136,246.691635 473.55364,246.691635 C490.834188,246.691635 506.490082,253.337148 517.874065,264.09907 C534.080576,245.841333 563.76144,233.612519 597.691974,233.612519 C645.725475,233.612519 685.242455,258.119591 690.072422,289.544612 C690.376207,289.543276 690.68034,289.542607 690.984816,289.542607 C692.740634,289.542607 694.485073,289.564874 696.216854,289.608825 C699.756284,281.756489 704.965236,274.705035 711.435175,268.831167 C715.118387,192.808833 741.730918,133.832709 774.01341,133.832709 C808.814755,133.832709 837.02682,202.371147 837.02682,286.917596 C837.02682,290.566548 836.974269,294.185683 836.870905,297.770776 C856.550898,301.816228 872.221518,316.225581 877.369452,334.752333 C879.496644,335.635896 881.543065,336.657191 883.495592,337.80402 C885.82957,321.604067 896.281137,306.947153 912.164465,295.588284 C906.268492,286.708684 903,276.911412 903,266.615313 C903,226.377221 952.92025,193.757803 1014.5,193.757803 C1059.99204,193.757803 1099.12089,211.559902 1116.46081,237.084451 C1156.00206,238.639876 1189.61221,249.366625 1206.44631,264.445933 C1210.34535,208.358824 1239.31394,164.794007 1274.47126,164.794007 C1296.02682,164.794007 1315.25596,181.170572 1327.80705,206.769066 C1328.20826,206.750765 1328.61039,206.741573 1329.01341,206.741573 C1348.2479,206.741573 1365.46955,227.678036 1377.02777,260.682167 C1382.75023,259.204935 1388.78295,258.027542 1395.05798,257.187105 C1395.01943,256.686991 1395,256.184711 1395,255.6804 C1395,231.961804 1437.98066,212.734082 1491,212.734082 C1503.90655,212.734082 1516.21822,213.873491 1527.45982,215.939724 C1540.77115,202.519213 1562.70135,193.757803 1587.5,193.757803 C1628.09293,193.757803 1661,217.233509 1661,246.19226 C1661,251.477595 1659.90384,256.580286 1657.86485,261.390943 C1686.63383,268.80792 1706,282.705572 1706,298.626717 C1706,309.310177 1697.27995,319.082515 1682.85021,326.597022 C1691.48201,328.470991 1699.07666,332.864906 1704.69461,338.902366 C1705.63371,338.852182 1706.57994,338.826744 1707.53257,338.826744 C1734.40619,338.826744 1756.19157,359.070306 1756.19157,384.042006 C1756.19157,386.192861 1756.02995,388.30864 1755.71738,390.379428 C1771.63624,395.754335 1783.01149,409.980049 1783.01149,426.684041 C1783.01149,428.774124 1782.8334,430.825406 1782.4906,432.825404 C1796.66618,441.331491 1806,455.821594 1806,472.266907 C1806,498.456738 1782.3277,519.687791 1753.12644,519.687791 C1746.63345,519.687791 1740.41383,518.638111 1734.66701,516.717638 C1731.39455,522.648927 1727.06994,528.032678 1721.91117,532.673924 L1736.75611,618.145287 L1692.46432,617.28946 L1698.29226,546.495694 C1690.69984,549.124693 1682.44622,550.566506 1673.81609,550.566506 C1636.3623,550.566506 1606,523.410508 1606,489.911887 C1606,477.565399 1610.12447,466.080504 1617.2083,456.499259 C1614.43389,450.738462 1612.89655,444.386326 1612.89655,437.712154 C1612.89655,417.607672 1626.84612,400.425289 1646.53801,393.525872 C1637.67228,386.446599 1632.05364,375.931056 1632.05364,364.191403 C1632.05364,359.653757 1632.89306,355.298992 1634.43497,351.254855 C1616.95416,359.443249 1592.3087,364.54432 1565,364.54432 C1550.08074,364.54432 1535.95635,363.021831 1523.36084,360.305209 L1542.87155,611.101284 L1492.18828,611.101284 L1505.9605,355.464953 C1497.94639,352.665012 1490.95169,349.308211 1485.26711,345.524601 C1467.94531,354.8175 1444.19817,360.549313 1418,360.549313 C1409.42651,360.549313 1401.11552,359.93546 1393.20632,358.783831 C1392.88393,360.391207 1392.48345,361.971937 1392.00882,363.522247 C1392.00735,363.672158 1392.0058,363.82201 1392.00416,363.971809 C1395.82043,371.837572 1397.94253,380.554962 1397.94253,389.729385 C1397.94253,402.970863 1393.52194,415.260282 1385.96735,425.411267 C1385.82477,426.140692 1385.6799,426.866934 1385.53275,427.589947 C1386.30889,431.907287 1386.71264,436.340178 1386.71264,440.859785 C1386.71264,482.346525 1352.69283,516.52667 1308.90658,521.097774 L1317.94253,611.593681 L1284.04026,610.454206 L1288.27228,521.032913 C1261.58118,518.074854 1238.5757,504.107273 1224.78357,484.213245 C1206.28531,467.827918 1193.08186,430.251059 1192.06336,385.957692 C1189.23704,386.053071 1186.38128,386.101631 1183.5,386.101631 C1180.49843,386.101631 1177.52457,386.048932 1174.58283,385.945502 C1157.92311,410.850548 1128.28619,428.71084 1093.45321,432.936948 Z M1083.51465,447.557148 L1084.54369,454.348417 C1086.88145,453.18821 1089.36385,452.125438 1091.97276,451.170766 L1083.51465,447.557148 Z M1003.86896,489.773453 L1042.28623,517.822736 L1047.377,430.410021 C1034.9386,427.461329 1023.37875,422.731702 1013.10505,416.566336 C1007.05475,417.230405 1000.83915,417.576076 994.5,417.576076 C970.452271,417.576076 948.182626,412.601586 929.969632,404.141493 C931.930863,408.632513 933.011494,413.545554 933.011494,418.694029 C933.011494,420.784111 932.833401,422.835394 932.490598,424.835392 C946.666181,433.341479 956,447.831581 956,464.276894 C956,467.163354 955.712455,469.98958 955.161654,472.733788 C957.713325,468.745167 964.280508,465.4244 972.982428,463.543481 C972.340191,462.446993 972,461.302235 972,460.124862 C972,452.077244 987.893891,445.55336 1007.5,445.55336 C1027.10611,445.55336 1043,452.077244 1043,460.124862 C1043,465.724641 1035.30449,470.586658 1024.01757,473.026326 C1024.65981,474.122813 1025,475.267572 1025,476.444944 C1025,482.393313 1016.31657,487.509208 1003.86896,489.773453 Z M718.107841,500.329936 C717.527983,498.70068 717.223427,497.013556 717.223427,495.285428 C717.223427,494.405832 717.302328,493.536859 717.456272,492.680732 C704.130663,478.520766 696.068966,460.056624 696.068966,439.861033 C696.068966,433.143379 696.960932,426.617297 698.641899,420.377471 C690.187956,419.674784 682.040813,418.614188 674.293872,417.234885 C671.54825,419.920497 668.498079,422.454499 665.176845,424.814385 L677.894861,511.146298 L718.107841,500.329936 Z M245.972756,458.162027 L237.514654,454.548409 L238.543693,461.339678 C240.881446,460.179471 243.363851,459.116699 245.972756,458.162027 Z" id="path-1"></path>
    </defs>
    <g id="Page-1" stroke="none" stroke-width="1" fill="none" fill-rule="evenodd">
        <g id="bg" transform="translate(-61.000000, 0.000000)">
            <g id="trees" transform="translate(0.000000, 254.681648)"></g>
            <g id="landing_bg" transform="translate(61.000000, 0.000000)">
                <g id="buildings">
                    <path d="M1231.70389,116.929342 L1179.47525,118.851436 L1012.79526,101.884742 L1008.5084,0.5110799 L591.503378,25.7958801 L591.503378,53.1399478 L0,31.9600499 L0,593.258427 L620.76723,593.258427 L1016.76318,593.258427 L1843,593.258427 L1843,118.851436 L1676.03163,100.577403 L1518.28432,106.382745 L1515.95603,82.8963795 L1234.47144,82.8963795 L1231.70389,116.929342 Z" id="Bg" fill="#EDDEBD"></path>
                    <path d="M1495.49832,593.67734 L1228.04613,593.67734 L645.360269,593.67734 L645.360269,593.346003 L364.876768,593.346003 L0,593.346003 L0,135.024951 L345.019529,161.682587 L345.019529,104.71676 L692.521212,70.9113608 L692.521212,110.404132 L1239.83636,164.454588 L1239.83636,312.25553 L1495.49832,300.383758 L1495.49832,159.925094 L1843,184.228404 L1843,594.257179 L1495.49832,594.257179 L1495.49832,593.67734 Z" id="Bg" fill="#E8D9BC"></path>
                </g>
                <mask id="mask-2" fill="white">
                    <use xlink:href="#path-1"></use>
                </mask>
                <use id="Mask" fill="#E0D0B4" xlink:href="#path-1"></use>
            </g>
            <g id="Group-2" transform="translate(61.000000, 590.262172)">
                <rect id="Rectangle" fill="#CCCCCC" x="0" y="1.13686838e-13" width="1841.75557" height="209.737828"></rect>
                <rect id="Rectangle" fill="#B3B3B3" x="0.24442944" y="131.902622" width="1841.75557" height="24.968789"></rect>
                <rect id="Rectangle" fill="#B3B3B3" x="0" y="1.13686838e-13" width="1841.75557" height="9.98751561"></rect>
            </g>
        </g>
    </g>
</svg>