<?xml version="1.0" encoding="UTF-8"?>
<svg width="675px" height="647px" viewBox="0 0 675 647" version="1.1" xmlns="http://www.w3.org/2000/svg" xmlns:xlink="http://www.w3.org/1999/xlink">
    <!-- Generator: Sketch 42 (36781) - http://www.bohemiancoding.com/sketch -->
    <title>cafe</title>
    <desc>Created with Sketch.</desc>
    <defs>
        <rect id="path-1" x="0" y="0" width="550" height="90" rx="5"></rect>
        <mask id="mask-2" maskContentUnits="userSpaceOnUse" maskUnits="objectBoundingBox" x="-3" y="-3" width="556" height="96">
            <rect x="-3" y="-3" width="556" height="96" fill="white"></rect>
            <use xlink:href="#path-1" fill="black"></use>
        </mask>
        <circle id="path-3" cx="45" cy="45" r="20"></circle>
        <mask id="mask-4" maskContentUnits="userSpaceOnUse" maskUnits="objectBoundingBox" x="0" y="0" width="40" height="40" fill="white">
            <use xlink:href="#path-3"></use>
        </mask>
        <circle id="path-5" cx="505" cy="45" r="20"></circle>
        <mask id="mask-6" maskContentUnits="userSpaceOnUse" maskUnits="objectBoundingBox" x="0" y="0" width="40" height="40" fill="white">
            <use xlink:href="#path-5"></use>
        </mask>
    </defs>
    <g id="Page-1" stroke="none" stroke-width="1" fill="none" fill-rule="evenodd">
        <g id="cafe" transform="translate(0.000000, 3.000000)">
            <rect id="Wall" fill="#877B7B" x="36" y="149" width="600" height="450"></rect>
            <g id="Door" transform="translate(336.000000, 209.000000)">
                <rect id="Rectangle" fill="#66584A" x="40" y="0" width="200" height="380"></rect>
                <rect id="Rectangle" fill="#7F6E5D" x="50" y="5" width="180" height="370"></rect>
                <circle id="Oval-2" stroke="#66584A" stroke-width="5" fill="#806E5D" cx="72.5" cy="189.5" r="7.5"></circle>
                <rect id="Rectangle" fill="#4C4949" x="0" y="365" width="280" height="25"></rect>
            </g>
            <g id="Window" transform="translate(96.000000, 249.000000)">
                <rect id="Rectangle" fill="#66584A" x="0" y="0" width="200" height="200"></rect>
                <rect id="Rectangle" fill="#E6E6E6" x="10" y="10" width="180" height="180"></rect>
                <rect id="Rectangle" fill="#66584A" x="95" y="0" width="10" height="200"></rect>
                <rect id="Rectangle" fill="#66584A" x="0" y="95" width="200" height="10"></rect>
                <rect id="Rectangle-4" fill-opacity="0.6" fill="#FFFFFF" x="21" y="120" width="60" height="15" rx="7.5"></rect>
                <rect id="Rectangle-4" fill-opacity="0.6" fill="#FFFFFF" x="119" y="120" width="60" height="15" rx="7.5"></rect>
            </g>
            <rect id="Hood-shadow" fill-opacity="0.25" fill="#000000" x="36" y="269" width="600" height="50"></rect>
            <g id="Hood" transform="translate(0.000000, 104.000000)">
                <polygon id="Rectangle" fill="#D95B5B" points="28.1795492 0.85546875 646.820451 0.85546875 674.970938 140.855469 0.0290616083 140.855469"></polygon>
                <polygon id="Rectangle-9" fill="#FFD98C" points="51.0921752 0.85546875 74.0048012 0.85546875 50.0247562 140.855469 25.0269089 140.855469"></polygon>
                <polygon id="Rectangle-9" fill="#FFD98C" points="96.9174272 0.85546875 119.830053 0.85546875 100.020451 140.855469 75.0226035 140.855469"></polygon>
                <polygon id="Rectangle-9" fill="#FFD98C" points="142.742679 0.85546875 165.655305 0.85546875 150.016145 140.855469 125.018298 140.855469"></polygon>
                <polygon id="Rectangle-9" fill="#FFD98C" points="188.567931 0.85546875 211.480557 0.85546875 200.01184 140.855469 175.013993 140.855469"></polygon>
                <polygon id="Rectangle-9" fill="#FFD98C" points="234.393183 0.85546875 257.305809 0.85546875 250.007534 140.855469 225.009687 140.855469"></polygon>
                <polygon id="Rectangle-9" fill="#FFD98C" points="280.218435 0.85546875 303.131061 0.85546875 300.003229 140.855469 275.005382 140.855469"></polygon>
                <polygon id="Rectangle-9" fill="#FFD98C" points="326.043687 0.85546875 348.956313 0.85546875 349.998924 140.855469 325.001076 140.855469"></polygon>
                <polygon id="Rectangle-9" fill="#FFD98C" points="371.868939 0.85546875 394.781565 0.85546875 399.994618 140.855469 374.996771 140.855469"></polygon>
                <polygon id="Rectangle-9" fill="#FFD98C" points="417.694191 0.85546875 440.606817 0.85546875 449.990313 140.855469 424.992466 140.855469"></polygon>
                <polygon id="Rectangle-9" fill="#FFD98C" points="463.519443 0.85546875 486.432069 0.85546875 499.986007 140.855469 474.98816 140.855469"></polygon>
                <polygon id="Rectangle-9" fill="#FFD98C" points="509.344695 0.85546875 532.257321 0.85546875 549.981702 140.855469 524.983855 140.855469"></polygon>
                <polygon id="Rectangle-9" fill="#FFD98C" points="555.169947 0.85546875 578.082573 0.85546875 599.977397 140.855469 574.979549 140.855469"></polygon>
                <polygon id="Rectangle-9" fill="#FFD98C" points="600.995199 0.85546875 623.907825 0.85546875 649.973091 140.855469 624.975244 140.855469"></polygon>
                <rect id="Rectangle" fill="#D95B5B" x="0" y="140" width="675" height="25"></rect>
                <rect id="Rectangle-9" fill="#F2CD85" x="25" y="140" width="25" height="25"></rect>
                <rect id="Rectangle-9" fill="#F2CD85" x="75" y="140" width="25" height="25"></rect>
                <rect id="Rectangle-9" fill="#F2CD85" x="125" y="140" width="25" height="25"></rect>
                <rect id="Rectangle-9" fill="#F2CD85" x="175" y="140" width="25" height="25"></rect>
                <rect id="Rectangle-9" fill="#F2CD85" x="225" y="140" width="25" height="25"></rect>
                <rect id="Rectangle-9" fill="#F2CD85" x="275" y="140" width="25" height="25"></rect>
                <rect id="Rectangle-9" fill="#F2CD85" x="325" y="140" width="25" height="25"></rect>
                <rect id="Rectangle-9" fill="#F2CD85" x="375" y="140" width="25" height="25"></rect>
                <rect id="Rectangle-9" fill="#F2CD85" x="425" y="140" width="25" height="25"></rect>
                <rect id="Rectangle-9" fill="#F2CD85" x="475" y="140" width="25" height="25"></rect>
                <rect id="Rectangle-9" fill="#F2CD85" x="525" y="140" width="25" height="25"></rect>
                <rect id="Rectangle-9" fill="#F2CD85" x="575" y="140" width="25" height="25"></rect>
                <rect id="Rectangle-9" fill="#F2CD85" x="625" y="140" width="25" height="25"></rect>
            </g>
            <g id="Banner" transform="translate(62.000000, 0.000000)">
                <rect id="Rectangle-5" fill="#7F7F7F" x="52" y="90" width="25" height="15"></rect>
                <rect id="Rectangle-5" fill="#7F7F7F" x="473" y="90" width="25" height="15"></rect>
                <g id="Rectangle">
                    <use fill="#FFF9E6" fill-rule="evenodd" xlink:href="#path-1"></use>
                    <use stroke="#B3B3B3" mask="url(#mask-2)" stroke-width="6" xlink:href="#path-1"></use>
                </g>
                <rect id="Rectangle" fill="#F3CE85" x="10" y="10" width="530" height="70" rx="5"></rect>
                <path d="M81.4,44.7 L92.664,55.48 L94.336,55.48 L82.412,44.26 L93.544,33.172 L91.916,33.172 L81.4,43.908 L81.4,33.172 L80.256,33.172 L80.256,55.48 L81.4,55.48 L81.4,44.7 Z M75.856,29.652 L85.36,29.652 L85.36,35.196 L90.112,29.652 L102.388,29.652 L88.924,44.084 L102.916,59 L90.112,59 L85.36,53.236 L85.36,59 L75.856,59 L75.856,29.652 Z M112.508,29.652 L119.548,29.652 L130.68,59 L121.44,59 L120.472,56.36 L111.584,56.36 L110.616,59 L101.376,59 L112.508,29.652 Z M118.008,49.892 L116.028,44.744 L114.048,49.892 L118.008,49.892 Z M107.932,55.48 L108.768,53.28 L123.288,53.28 L124.124,55.48 L125.356,55.48 L116.864,33.172 L115.192,33.172 L106.7,55.48 L107.932,55.48 Z M116.028,34.228 L122.892,52.224 L109.164,52.224 L116.028,34.228 Z M131.34,29.652 L142.824,29.652 C144.290674,29.652 145.632661,29.820665 146.85,30.158 C148.067339,30.495335 149.108662,30.9939967 149.974,31.654 C150.839338,32.3140033 151.513998,33.1353284 151.998,34.118 C152.482002,35.1006716 152.724,36.2519934 152.724,37.572 C152.724,38.5106714 152.606668,39.3099967 152.372,39.97 C152.137332,40.6300033 151.888001,41.1799978 151.624,41.62 C151.301332,42.1480026 150.934669,42.5879982 150.524,42.94 C151.169337,43.3506687 151.755997,43.8786634 152.284,44.524 C152.724002,45.0813361 153.127331,45.7853291 153.494,46.636 C153.860668,47.4866709 154.044,48.5279938 154.044,49.76 C154.044,51.168007 153.794669,52.4439943 153.296,53.588 C152.797331,54.7320057 152.086005,55.7073293 151.162,56.514 C150.237995,57.3206707 149.108673,57.9366645 147.774,58.362 C146.439327,58.7873355 144.950675,59 143.308,59 L131.34,59 L131.34,29.652 Z M141.46,52.092 C143.689344,52.092 144.804,51.2413418 144.804,49.54 C144.804,47.8386582 143.689344,46.988 141.46,46.988 L140.404,46.988 L140.404,52.092 L141.46,52.092 Z M143.66,38.584 C143.66,37.2346599 142.926674,36.56 141.46,36.56 L140.404,36.56 L140.404,40.608 L141.46,40.608 C142.926674,40.608 143.66,39.9333401 143.66,38.584 Z M142.076,55.48 C144.657346,55.48 146.563994,54.9226722 147.796,53.808 C149.028006,52.6933278 149.644,51.2120092 149.644,49.364 C149.644,48.1613273 149.387336,47.2006703 148.874,46.482 C148.360664,45.7633297 147.81067,45.1986687 147.224,44.788 C146.490663,44.3186643 145.684004,43.9960009 144.804,43.82 C145.508004,43.6146656 146.138664,43.2920022 146.696,42.852 C147.194669,42.4706648 147.641998,41.9500033 148.038,41.29 C148.434002,40.6299967 148.632,39.7866718 148.632,38.76 C148.632,36.9119908 148.045339,35.5186714 146.872,34.58 C145.698661,33.6413286 144.10001,33.172 142.076,33.172 L135.74,33.172 L135.74,55.48 L142.076,55.48 Z M136.884,54.424 L136.884,44.348 L142.032,44.348 C142.941338,44.348 143.784663,44.4433324 144.562,44.634 C145.339337,44.8246676 146.02133,45.117998 146.608,45.514 C147.19467,45.910002 147.656665,46.4306634 147.994,47.076 C148.331335,47.7213366 148.5,48.4839956 148.5,49.364 C148.5,51.1533423 147.906006,52.443996 146.718,53.236 C145.529994,54.028004 143.96801,54.424 142.032,54.424 L136.884,54.424 Z M136.884,43.292 L136.884,34.228 L142.076,34.228 C143.982676,34.228 145.353996,34.6459958 146.19,35.482 C147.026004,36.3180042 147.444,37.4106599 147.444,38.76 C147.444,40.1093401 147.026004,41.2019958 146.19,42.038 C145.353996,42.8740042 143.982676,43.292 142.076,43.292 L136.884,43.292 Z M161.568,44.7 L172.832,55.48 L174.504,55.48 L162.58,44.26 L173.712,33.172 L172.084,33.172 L161.568,43.908 L161.568,33.172 L160.424,33.172 L160.424,55.48 L161.568,55.48 L161.568,44.7 Z M156.024,29.652 L165.528,29.652 L165.528,35.196 L170.28,29.652 L182.556,29.652 L169.092,44.084 L183.084,59 L170.28,59 L165.528,53.236 L165.528,59 L156.024,59 L156.024,29.652 Z M192.676,29.652 L199.716,29.652 L210.848,59 L201.608,59 L200.64,56.36 L191.752,56.36 L190.784,59 L181.544,59 L192.676,29.652 Z M198.176,49.892 L196.196,44.744 L194.216,49.892 L198.176,49.892 Z M188.1,55.48 L188.936,53.28 L203.456,53.28 L204.292,55.48 L205.524,55.48 L197.032,33.172 L195.36,33.172 L186.868,55.48 L188.1,55.48 Z M196.196,34.228 L203.06,52.224 L189.332,52.224 L196.196,34.228 Z M210.848,51.124 C211.170668,51.182667 211.471332,51.212 211.75,51.212 L212.564,51.212 C213.502671,51.212 214.28733,51.1166676 214.918,50.926 C215.54867,50.7353324 216.047331,50.4786683 216.414,50.156 C216.780668,49.8333317 217.044666,49.474002 217.206,49.078 C217.367334,48.681998 217.448,48.2640022 217.448,47.824 C217.448,47.2079969 217.242669,46.6213361 216.832,46.064 C216.421331,45.5066639 215.908003,44.9933357 215.292,44.524 C214.675997,44.0546643 214.016004,43.6366685 213.312,43.27 C212.607996,42.9033315 211.977336,42.5880013 211.42,42.324 C211.918669,42.0013317 212.417331,41.6640018 212.916,41.312 C213.414669,40.9599982 213.861998,40.6006685 214.258,40.234 C214.654002,39.8673315 214.969332,39.5080018 215.204,39.156 C215.438668,38.8039982 215.556,38.4666683 215.556,38.144 C215.556,37.6159974 215.358002,37.2566676 214.962,37.066 C214.565998,36.8753324 214.133336,36.78 213.664,36.78 C212.930663,36.78 212.27067,36.8533326 211.684,37 L210.848,37.22 L210.848,29.828 L212.3,29.564 C212.798669,29.505333 213.421996,29.446667 214.17,29.388 C214.918004,29.329333 215.805328,29.3 216.832,29.3 C219.736015,29.3 221.86266,29.9526601 223.212,31.258 C224.56134,32.5633399 225.236,34.2719894 225.236,36.384 C225.236,37.117337 225.118668,37.7846637 224.884,38.386 C224.649332,38.9873363 224.385335,39.5079978 224.092,39.948 C223.945333,40.2120013 223.776668,40.4613322 223.586,40.696 C223.395332,40.9306678 223.197334,41.1653322 222.992,41.4 C223.373335,41.6933348 223.725332,42.008665 224.048,42.346 C224.370668,42.683335 224.678665,43.0426648 224.972,43.424 C225.470669,44.09867 225.925331,44.9053286 226.336,45.844 C226.746669,46.7826714 226.952,47.8386608 226.952,49.012 C226.952,50.8306758 226.578004,52.3926601 225.83,53.698 C225.081996,55.0033399 224.07734,56.0739958 222.816,56.91 C221.55466,57.7460042 220.095342,58.361998 218.438,58.758 C216.780658,59.154002 215.057342,59.352 213.268,59.352 L212.234,59.352 C211.837998,59.352 211.376003,59.3373335 210.848,59.308 L210.848,51.124 Z M214.5,55.788 C215.644006,55.788 216.707328,55.6266683 217.69,55.304 C218.672672,54.9813317 219.537996,54.5120031 220.286,53.896 C221.034004,53.2799969 221.620665,52.5393377 222.046,51.674 C222.471335,50.8086623 222.684,49.8186722 222.684,48.704 C222.684,47.3546599 222.34667,46.1520053 221.672,45.096 C220.99733,44.0399947 219.853341,42.9106727 218.24,41.708 C219.325339,40.6813282 220.051332,39.8086703 220.418,39.09 C220.784668,38.3713297 220.968,37.6306705 220.968,36.868 C220.968,35.6359938 220.506005,34.6900033 219.582,34.03 C218.657995,33.3699967 217.580006,33.04 216.348,33.04 C216.054665,33.04 215.790668,33.0473333 215.556,33.062 C215.321332,33.0766667 215.116001,33.0986665 214.94,33.128 L214.368,33.216 L214.368,34.184 C214.544001,34.184 214.705333,34.1693335 214.852,34.14 C214.998667,34.1106665 215.203999,34.0886667 215.468,34.074 C215.732001,34.0593333 216.025332,34.052 216.348,34.052 C217.374672,34.052 218.210663,34.3013308 218.856,34.8 C219.501337,35.2986692 219.824,36.0173286 219.824,36.956 C219.824,37.8066709 219.545336,38.6059963 218.988,39.354 C218.430664,40.1020037 217.638672,40.9159956 216.612,41.796 C217.462671,42.3826696 218.20333,42.9399974 218.834,43.468 C219.46467,43.9960026 219.977998,44.5239974 220.374,45.052 C220.770002,45.5800026 221.063332,46.1373304 221.254,46.724 C221.444668,47.3106696 221.54,47.970663 221.54,48.704 C221.54,49.6720048 221.356668,50.5299963 220.99,51.278 C220.623331,52.0260037 220.117337,52.6566641 219.472,53.17 C218.826663,53.6833359 218.078671,54.0719987 217.228,54.336 C216.377329,54.6000013 215.468005,54.732 214.5,54.732 L214.236,54.732 L214.236,55.788 L214.5,55.788 Z M234.036,44.348 C234.036,42.939993 234.277998,41.6200062 234.762,40.388 C235.246002,39.1559938 235.927996,38.0853379 236.808,37.176 C237.688004,36.2666621 238.75866,35.5480026 240.02,35.02 C241.28134,34.4919974 242.689326,34.228 244.244,34.228 C245.00667,34.228 245.688664,34.2793328 246.29,34.382 C246.891336,34.4846672 247.397331,34.6093326 247.808,34.756 C248.306669,34.9026674 248.731998,35.0786656 249.084,35.284 L249.7,34.228 C249.230664,34.0226656 248.732003,33.8320009 248.204,33.656 C247.705331,33.5093326 247.133337,33.3773339 246.488,33.26 C245.842663,33.1426661 245.094671,33.084 244.244,33.084 C242.747993,33.084 241.318007,33.3479974 239.954,33.876 C238.589993,34.4040026 237.387339,35.1593284 236.346,36.142 C235.304661,37.1246716 234.46867,38.3126597 233.838,39.706 C233.20733,41.0993403 232.892,42.6466582 232.892,44.348 C232.892,46.0786753 233.192664,47.6333264 233.794,49.012 C234.395336,50.3906736 235.223995,51.5713284 236.28,52.554 C237.336005,53.5366716 238.567993,54.2919974 239.976,54.82 C241.384007,55.3480026 242.879992,55.612 244.464,55.612 C245.344004,55.612 246.135996,55.5386674 246.84,55.392 C247.544004,55.2453326 248.145331,55.0840009 248.644,54.908 C249.201336,54.7026656 249.699998,54.4680013 250.14,54.204 L249.524,53.148 C249.142665,53.4120013 248.702669,53.6319991 248.204,53.808 C247.763998,53.9840009 247.236003,54.1379993 246.62,54.27 C246.003997,54.4020007 245.285337,54.468 244.464,54.468 C242.850659,54.468 241.398673,54.2040026 240.108,53.676 C238.817327,53.1479974 237.724671,52.4293379 236.83,51.52 C235.935329,50.6106621 235.246002,49.5400062 234.762,48.308 C234.277998,47.0759938 234.036,45.756007 234.036,44.348 Z M228.492,44.348 C228.492,42.0013216 228.902663,39.8820095 229.724,37.99 C230.545337,36.0979905 231.659993,34.4773401 233.068,33.128 C234.476007,31.7786599 236.118657,30.7446703 237.996,30.026 C239.873343,29.3073297 241.867989,28.948 243.98,28.948 C245.652008,28.948 247.14066,29.1093317 248.446,29.432 C249.75134,29.7546683 250.873329,30.1213313 251.812,30.532 C252.897339,31.0013357 253.835996,31.5146639 254.628,32.072 L250.008,40.212 C249.538664,39.8599982 249.025336,39.5226683 248.468,39.2 C247.969331,38.9653322 247.375337,38.7380011 246.686,38.518 C245.996663,38.2979989 245.212004,38.188 244.332,38.188 C243.422662,38.188 242.58667,38.3493317 241.824,38.672 C241.06133,38.9946683 240.394003,39.4346639 239.822,39.992 C239.249997,40.5493361 238.802668,41.2019963 238.48,41.95 C238.157332,42.6980037 237.996,43.4973291 237.996,44.348 C237.996,45.1986709 238.164665,45.9979963 238.502,46.746 C238.839335,47.4940037 239.30133,48.1466639 239.888,48.704 C240.47467,49.2613361 241.163996,49.7013317 241.956,50.024 C242.748004,50.3466683 243.613329,50.508 244.552,50.508 C245.490671,50.508 246.326663,50.3906678 247.06,50.156 C247.793337,49.9213322 248.409331,49.6573348 248.908,49.364 C249.49467,49.0413317 250.007998,48.6600022 250.448,48.22 L255.068,56.36 C254.275996,57.0053366 253.337339,57.5773308 252.252,58.076 C251.313329,58.4866687 250.184007,58.8679982 248.864,59.22 C247.543993,59.5720018 246.033342,59.748 244.332,59.748 C242.043989,59.748 239.93201,59.3740037 237.996,58.626 C236.05999,57.8779963 234.388007,56.8293401 232.98,55.48 C231.571993,54.1306599 230.472004,52.5100095 229.68,50.618 C228.887996,48.7259905 228.492,46.6360114 228.492,44.348 Z M261.712,44.7 L272.976,55.48 L274.648,55.48 L262.724,44.26 L273.856,33.172 L272.228,33.172 L261.712,43.908 L261.712,33.172 L260.568,33.172 L260.568,55.48 L261.712,55.48 L261.712,44.7 Z M256.168,29.652 L265.672,29.652 L265.672,35.196 L270.424,29.652 L282.7,29.652 L269.236,44.084 L283.228,59 L270.424,59 L265.672,53.236 L265.672,59 L256.168,59 L256.168,29.652 Z M292.82,29.652 L299.86,29.652 L310.992,59 L301.752,59 L300.784,56.36 L291.896,56.36 L290.928,59 L281.688,59 L292.82,29.652 Z M298.32,49.892 L296.34,44.744 L294.36,49.892 L298.32,49.892 Z M288.244,55.48 L289.08,53.28 L303.6,53.28 L304.436,55.48 L305.668,55.48 L297.176,33.172 L295.504,33.172 L287.012,55.48 L288.244,55.48 Z M296.34,34.228 L303.204,52.224 L289.476,52.224 L296.34,34.228 Z M324.852,37.572 L324.368,37.572 C323.253328,37.572 322.307337,37.8213308 321.53,38.32 C320.752663,38.8186692 320.364,39.6546608 320.364,40.828 C320.364,42.0013392 320.752663,42.8373308 321.53,43.336 C322.307337,43.8346692 323.253328,44.084 324.368,44.084 L324.852,44.084 L324.852,37.572 Z M334.224,59 L324.852,59 L324.852,51.564 L320.452,59 L309.452,59 L314.952,49.32 C314.218663,48.8213308 313.55867,48.176004 312.972,47.384 C312.473331,46.70933 312.018669,45.8660051 311.608,44.854 C311.197331,43.8419949 310.992,42.5880075 310.992,41.092 C310.992,39.2439908 311.321997,37.6086738 311.982,36.186 C312.642003,34.7633262 313.558661,33.5680048 314.732,32.6 C315.905339,31.6319952 317.291325,30.8986692 318.89,30.4 C320.488675,29.9013308 322.226657,29.652 324.104,29.652 L334.224,29.652 L334.224,59 Z M325.072,47.736 C322.402653,47.736 320.312674,47.1640057 318.802,46.02 C317.291326,44.8759943 316.536,43.204011 316.536,41.004 C316.536,38.803989 317.291326,37.1246725 318.802,35.966 C320.312674,34.8073275 322.402653,34.228 325.072,34.228 L328.68,34.228 L328.68,47.736 L325.072,47.736 Z M328.68,48.792 L328.68,55.48 L329.824,55.48 L329.824,33.172 L325.072,33.172 C323.693326,33.172 322.417339,33.340665 321.244,33.678 C320.070661,34.015335 319.051338,34.5139967 318.186,35.174 C317.320662,35.8340033 316.638669,36.6553284 316.14,37.638 C315.641331,38.6206716 315.392,39.7426604 315.392,41.004 C315.392,42.8520092 315.861329,44.3553275 316.8,45.514 C317.738671,46.6726725 318.999992,47.5306639 320.584,48.088 L316.184,55.48 L317.548,55.48 L321.728,48.44 C322.285336,48.5573339 322.835331,48.645333 323.378,48.704 C323.920669,48.762667 324.48533,48.792 325.072,48.792 L328.68,48.792 Z M351.648,44.7 L362.912,55.48 L364.584,55.48 L352.66,44.26 L363.792,33.172 L362.164,33.172 L351.648,43.908 L351.648,33.172 L350.504,33.172 L350.504,55.48 L351.648,55.48 L351.648,44.7 Z M346.104,29.652 L355.608,29.652 L355.608,35.196 L360.36,29.652 L372.636,29.652 L359.172,44.084 L373.164,59 L360.36,59 L355.608,53.236 L355.608,59 L346.104,59 L346.104,29.652 Z M391.6,33.172 L390.28,33.172 L385.088,42.632 L379.896,33.172 L378.576,33.172 L384.428,43.82 L378.004,55.48 L379.324,55.48 L391.6,33.172 Z M379.984,43.82 L372.196,29.652 L382.448,29.652 L385.088,34.448 L387.728,29.652 L398.024,29.652 L381.876,59 L371.624,59 L379.984,43.82 Z M410.3,45.008 L416.064,55.48 L417.384,55.48 L410.96,43.82 L416.812,33.172 L415.492,33.172 L410.3,42.632 L405.108,33.172 L403.788,33.172 L409.64,43.82 L403.216,55.48 L404.536,55.48 L410.3,45.008 Z M405.196,43.82 L397.408,29.652 L407.66,29.652 L410.3,34.448 L412.94,29.652 L423.236,29.652 L415.448,43.82 L423.808,59 L413.556,59 L410.3,53.148 L407.088,59 L396.836,59 L405.196,43.82 Z M424.468,29.652 L433.84,29.652 L433.84,39.64 L439.076,39.64 L439.076,29.652 L448.492,29.652 L448.492,59 L439.076,59 L439.076,48.132 L433.84,48.132 L433.84,59 L424.468,59 L424.468,29.652 Z M430.012,55.48 L430.012,44.348 L442.948,44.348 L442.948,55.48 L444.092,55.48 L444.092,33.172 L442.948,33.172 L442.948,43.292 L430.012,43.292 L430.012,33.172 L428.868,33.172 L428.868,55.48 L430.012,55.48 Z M464.772,37.572 L464.288,37.572 C463.173328,37.572 462.227337,37.8213308 461.45,38.32 C460.672663,38.8186692 460.284,39.6546608 460.284,40.828 C460.284,42.0013392 460.672663,42.8373308 461.45,43.336 C462.227337,43.8346692 463.173328,44.084 464.288,44.084 L464.772,44.084 L464.772,37.572 Z M474.144,59 L464.772,59 L464.772,51.564 L460.372,59 L449.372,59 L454.872,49.32 C454.138663,48.8213308 453.47867,48.176004 452.892,47.384 C452.393331,46.70933 451.938669,45.8660051 451.528,44.854 C451.117331,43.8419949 450.912,42.5880075 450.912,41.092 C450.912,39.2439908 451.241997,37.6086738 451.902,36.186 C452.562003,34.7633262 453.478661,33.5680048 454.652,32.6 C455.825339,31.6319952 457.211325,30.8986692 458.81,30.4 C460.408675,29.9013308 462.146657,29.652 464.024,29.652 L474.144,29.652 L474.144,59 Z M464.992,47.736 C462.322653,47.736 460.232674,47.1640057 458.722,46.02 C457.211326,44.8759943 456.456,43.204011 456.456,41.004 C456.456,38.803989 457.211326,37.1246725 458.722,35.966 C460.232674,34.8073275 462.322653,34.228 464.992,34.228 L468.6,34.228 L468.6,47.736 L464.992,47.736 Z M468.6,48.792 L468.6,55.48 L469.744,55.48 L469.744,33.172 L464.992,33.172 C463.613326,33.172 462.337339,33.340665 461.164,33.678 C459.990661,34.015335 458.971338,34.5139967 458.106,35.174 C457.240662,35.8340033 456.558669,36.6553284 456.06,37.638 C455.561331,38.6206716 455.312,39.7426604 455.312,41.004 C455.312,42.8520092 455.781329,44.3553275 456.72,45.514 C457.658671,46.6726725 458.919992,47.5306639 460.504,48.088 L456.104,55.48 L457.468,55.48 L461.648,48.44 C462.205336,48.5573339 462.755331,48.645333 463.298,48.704 C463.840669,48.762667 464.40533,48.792 464.992,48.792 L468.6,48.792 Z" id="КАВКАЗСКАЯ-КУХНЯ" fill="#595252"></path>
                <use id="Oval-3" stroke="#E66060" mask="url(#mask-4)" stroke-width="12" fill="#FFF8E6" xlink:href="#path-3"></use>
                <use id="Oval-3" stroke="#E66060" mask="url(#mask-6)" stroke-width="12" fill="#FFF8E6" xlink:href="#path-5"></use>
                <circle id="Oval-3" fill="#595252" cx="45" cy="45" r="10"></circle>
                <circle id="Oval-3" fill="#595252" cx="505" cy="45" r="10"></circle>
            </g>
            <g id="Bench-shadow" transform="translate(53.000000, 469.000000)" fill-opacity="0.15" fill="#000000">
                <polygon id="Rectangle-7" transform="translate(158.512695, 152.500000) scale(1, -1) translate(-158.512695, -152.500000) " points="6.95898438 130 310.066406 130 304.714844 175 15.5566406 175"></polygon>
                <polygon id="Rectangle-7" points="9 0 309 0 319.359375 130 0.259765625 130"></polygon>
            </g>
            <g id="Bench" transform="translate(62.000000, 473.000000)">
                <rect id="Rectangle-6" fill="#66584A" x="275" y="87" width="20" height="50"></rect>
                <rect id="Rectangle-6" fill="#66584A" x="5" y="87" width="20" height="50"></rect>
                <rect id="Rectangle-6" fill="#736354" x="20" y="0" width="20" height="80"></rect>
                <rect id="Rectangle-6" fill="#736354" x="0" y="112" width="20" height="50"></rect>
                <rect id="Rectangle-6" fill="#736354" x="280" y="112" width="20" height="50"></rect>
                <rect id="Rectangle-6" fill="#736354" x="260" y="0" width="20" height="80"></rect>
                <polygon id="Rectangle-6" fill="#998470" points="4.99072266 80 294.916504 80 300 107 0 107"></polygon>
                <rect id="Rectangle-6" fill="#806E5D" x="5" y="65" width="290" height="15"></rect>
                <polygon id="Rectangle-6" fill="#736354" points="6.0546875 62 294.264648 62 295 65 5 65"></polygon>
                <polygon id="Rectangle-6" fill="#736354" points="6.0546875 42 294.264648 42 295 45 5 45"></polygon>
                <polygon id="Rectangle-6" fill="#736354" points="6.0546875 22 294.264648 22 295 25 5 25"></polygon>
                <polygon id="Rectangle-6" fill="#736354" points="6.0546875 2 294.264648 2 295 5 5 5"></polygon>
                <rect id="Rectangle-6" fill="#736354" x="0" y="107" width="300" height="15"></rect>
                <rect id="Rectangle-6" fill="#806E5D" x="5" y="45" width="290" height="15"></rect>
                <rect id="Rectangle-6" fill="#806E5D" x="5" y="25" width="290" height="15"></rect>
                <rect id="Rectangle-6" fill="#806E5D" x="5" y="5" width="290" height="15"></rect>
            </g>
        </g>
    </g>
</svg>