<?xml version="1.0" encoding="UTF-8"?>
<svg width="564px" height="259px" viewBox="0 0 564 259" version="1.1" xmlns="http://www.w3.org/2000/svg" xmlns:xlink="http://www.w3.org/1999/xlink">
    <!-- Generator: Sketch 42 (36781) - http://www.bohemiancoding.com/sketch -->
    <title>cloud_4</title>
    <desc>Created with Sketch.</desc>
    <defs></defs>
    <g id="Page-1" stroke="none" stroke-width="1" fill="none" fill-rule="evenodd">
        <g id="cloud_4" transform="translate(282.000000, 129.500000) scale(-1, 1) translate(-282.000000, -129.500000) " fill="#FFF7E6">
            <path d="M480.563655,129 C480.563655,57.7552673 422.234494,0 350.281828,0 C309.725832,0 273.498016,18.3488115 249.603851,47.1197267 C240.107357,44.4366099 230.079999,43 219.713768,43 C167.160117,43 123.316105,79.923503 113.198377,129 L64.499702,129 C28.8801785,129 0,157.877634 0,193.5 C0,229.130199 28.8775002,258 64.499702,258 L211.696202,258 C214.34354,258.191079 217.017189,258.288292 219.713768,258.288292 C222.410348,258.288292 225.083996,258.191079 227.731334,258 L498.819139,258 C534.438662,258 563.318841,229.122366 563.318841,193.5 C563.318841,157.869801 534.44134,129 498.819139,129 L480.563655,129 Z" id="Combined-Shape"></path>
        </g>
    </g>
</svg>