<?xml version="1.0" encoding="UTF-8"?>
<svg width="735px" height="346px" viewBox="0 0 735 346" version="1.1" xmlns="http://www.w3.org/2000/svg" xmlns:xlink="http://www.w3.org/1999/xlink">
    <!-- Generator: Sketch 42 (36781) - http://www.bohemiancoding.com/sketch -->
    <title>cloud_3</title>
    <desc>Created with Sketch.</desc>
    <defs></defs>
    <g id="Page-1" stroke="none" stroke-width="1" fill="none" fill-rule="evenodd">
        <g id="cloud_3" transform="translate(367.500000, 173.000000) scale(-1, 1) translate(-367.500000, -173.000000) " fill="#FFF7E6">
            <path d="M694.035004,189.253951 C682.693961,141.337351 644.046967,103.831655 595.233954,93.7081534 C566.328068,38.0627377 507.760253,0 440.214072,0 C370.687865,0 310.674116,40.3269614 282.729165,98.6464737 C268.996836,93.6987718 254.1736,91 238.713768,91 C182.19015,91 134.176223,127.075849 116.875892,177.242105 L84.3810572,177.242105 C37.7775226,177.242105 0,215.019847 0,261.621053 C0,308.219376 37.7786861,346 84.3810572,346 L650.618943,346 C697.222477,346 735,308.222258 735,261.621053 C735,230.899419 718.579178,204.010471 694.035004,189.253951 Z" id="Combined-Shape"></path>
        </g>
    </g>
</svg>