<?xml version="1.0" encoding="UTF-8"?>
<svg width="735px" height="334px" viewBox="0 0 735 334" version="1.1" xmlns="http://www.w3.org/2000/svg" xmlns:xlink="http://www.w3.org/1999/xlink">
    <!-- Generator: Sketch 42 (36781) - http://www.bohemiancoding.com/sketch -->
    <title>cloud_2</title>
    <desc>Created with Sketch.</desc>
    <defs></defs>
    <g id="Page-1" stroke="none" stroke-width="1" fill="none" fill-rule="evenodd">
        <g id="cloud_2" transform="translate(367.500000, 167.000000) scale(-1, 1) translate(-367.500000, -167.000000) " fill="#FFF7E6">
            <path d="M118.070745,165.242105 C119.02295,73.8202816 194.165495,0 286.721014,0 C342.438035,0 391.844841,26.7514183 422.555409,67.9900958 C439.462317,59.9054327 458.426749,55.3736842 478.460145,55.3736842 C543.523327,55.3736842 597.311302,103.173613 605.959516,165.242105 L650.618943,165.242105 C697.221314,165.242105 735,203.022729 735,249.621053 C735,296.222258 697.222477,334 650.618943,334 L84.3810572,334 C37.7786861,334 0,296.219376 0,249.621053 C0,203.019847 37.7775226,165.242105 84.3810572,165.242105 L118.070745,165.242105 Z" id="Combined-Shape"></path>
        </g>
    </g>
</svg>