<?xml version="1.0" encoding="UTF-8"?>
<svg width="899px" height="680px" viewBox="0 0 899 680" version="1.1" xmlns="http://www.w3.org/2000/svg" xmlns:xlink="http://www.w3.org/1999/xlink">
    <!-- Generator: Sketch 42 (36781) - http://www.bohemiancoding.com/sketch -->
    <title>office</title>
    <desc>Created with Sketch.</desc>
    <defs>
        <rect id="path-1" x="0" y="0" width="730" height="100" rx="8"></rect>
        <mask id="mask-2" maskContentUnits="userSpaceOnUse" maskUnits="objectBoundingBox" x="0" y="0" width="730" height="100" fill="white">
            <use xlink:href="#path-1"></use>
        </mask>
        <rect id="path-3" x="650" y="293" width="124" height="44" rx="6"></rect>
        <mask id="mask-4" maskContentUnits="userSpaceOnUse" maskUnits="objectBoundingBox" x="0" y="0" width="124" height="44" fill="white">
            <use xlink:href="#path-3"></use>
        </mask>
        <path d="M25.6223555,5.99501566 C26.9445222,2.68405993 30.5229653,0 33.6136119,0 L59.7390156,0 C62.8302979,0 64.3576927,2.69140241 63.1565104,5.99501566 L40.246304,69.0049843 C39.042452,72.3159401 35.3799131,75 32.0673166,75 L4.06575752,75 C0.752479547,75 -0.85870296,72.3085976 0.460531696,69.0049843 L25.6223555,5.99501566 Z" id="path-5"></path>
        <mask id="mask-6" maskContentUnits="userSpaceOnUse" maskUnits="objectBoundingBox" x="0" y="0" width="63.5664896" height="75" fill="white">
            <use xlink:href="#path-5"></use>
        </mask>
        <path d="M62.3527238,5.99501566 C63.5595337,2.68405993 67.0444616,0 70.1351082,0 L96.2605118,0 C99.3517942,0 100.97296,2.69140241 99.8868787,5.99501566 L79.1719992,69.0049843 C78.083504,72.3159401 74.5144803,75 71.2018838,75 L43.2003247,75 C39.8870468,75 38.1820932,72.3085976 39.3862269,69.0049843 L62.3527238,5.99501566 Z" id="path-7"></path>
        <mask id="mask-8" maskContentUnits="userSpaceOnUse" maskUnits="objectBoundingBox" x="0" y="0" width="61.2244022" height="75" fill="white">
            <use xlink:href="#path-7"></use>
        </mask>
        <path d="M99.0890799,5.99501566 C100.180533,2.68405993 103.571946,0 106.662592,0 L132.787996,0 C135.879278,0 137.594215,2.69140241 136.623235,5.99501566 L118.103682,69.0049843 C117.130544,72.3159401 113.655035,75 110.342439,75 L82.3408798,75 C79.0276019,75 77.2288773,72.3085976 78.31791,69.0049843 L99.0890799,5.99501566 Z" id="path-9"></path>
        <mask id="mask-10" maskContentUnits="userSpaceOnUse" maskUnits="objectBoundingBox" x="0" y="0" width="58.8947929" height="75" fill="white">
            <use xlink:href="#path-9"></use>
        </mask>
        <path d="M135.831616,5.99501566 C136.807712,2.68405993 140.10561,0 143.196257,0 L169.32166,0 C172.412943,0 174.22165,2.69140241 173.365771,5.99501566 L157.041545,69.0049843 C156.183764,72.3159401 152.801771,75 149.489174,75 L121.487615,75 C118.174337,75 116.281841,72.3085976 117.255773,69.0049843 L135.831616,5.99501566 Z" id="path-11"></path>
        <mask id="mask-12" maskContentUnits="userSpaceOnUse" maskUnits="objectBoundingBox" x="0" y="0" width="56.5780714" height="75" fill="white">
            <use xlink:href="#path-11"></use>
        </mask>
        <path d="M172.580516,5.99501566 C173.441256,2.68405993 176.645638,0 179.736285,0 L205.861688,0 C208.952971,0 210.855449,2.69140241 210.114671,5.99501566 L195.985772,69.0049843 C195.243348,72.3159401 191.95487,75 188.642273,75 L160.640714,75 C157.327436,75 155.341169,72.3085976 156.2,69.0049843 L172.580516,5.99501566 Z" id="path-13"></path>
        <mask id="mask-14" maskContentUnits="userSpaceOnUse" maskUnits="objectBoundingBox" x="0" y="0" width="54.2746275" height="75" fill="white">
            <use xlink:href="#path-13"></use>
        </mask>
        <path d="M209.335954,5.99501566 C210.081337,2.68405993 213.192204,0 216.28285,0 L242.408254,0 C245.499536,0 247.495786,2.69140241 246.870109,5.99501566 L234.936537,69.0049843 C234.309469,72.3159401 231.114506,75 227.80191,75 L199.800351,75 C196.487073,75 194.407035,72.3085976 195.150765,69.0049843 L209.335954,5.99501566 Z" id="path-15"></path>
        <mask id="mask-16" maskContentUnits="userSpaceOnUse" maskUnits="objectBoundingBox" x="0" y="0" width="51.9848283" height="75" fill="white">
            <use xlink:href="#path-15"></use>
        </mask>
        <path d="M245.098092,5.99501566 C245.728118,2.68405993 248.74547,0 251.836117,0 L277.96152,0 C281.052803,0 283.142823,2.69140241 282.632247,5.99501566 L272.894002,69.0049843 C272.382291,72.3159401 269.280843,75 265.968247,75 L237.966688,75 C234.65341,75 232.479601,72.3085976 233.10823,69.0049843 L245.098092,5.99501566 Z" id="path-17"></path>
        <mask id="mask-18" maskContentUnits="userSpaceOnUse" maskUnits="objectBoundingBox" x="0" y="0" width="49.7090143" height="75" fill="white">
            <use xlink:href="#path-17"></use>
        </mask>
        <path d="M281.86708,5.99501566 C282.381749,2.68405993 285.305586,0 288.396233,0 L314.521636,0 C317.612919,0 319.796711,2.69140241 319.401235,5.99501566 L311.858317,69.0049843 C311.461963,72.3159401 308.45403,75 305.141434,75 L277.139875,75 C273.826597,75 271.559017,72.3085976 272.072545,69.0049843 L281.86708,5.99501566 Z" id="path-19"></path>
        <mask id="mask-20" maskContentUnits="userSpaceOnUse" maskUnits="objectBoundingBox" x="0" y="0" width="47.4474964" height="75" fill="white">
            <use xlink:href="#path-19"></use>
        </mask>
        <path d="M318.643054,5.99501566 C319.042366,2.68405993 321.872688,0 324.963334,0 L351.088738,0 C354.18002,0 356.457583,2.69140241 356.177209,5.99501566 L350.829618,69.0049843 C350.548621,72.3159401 347.634203,75 344.321607,75 L316.320048,75 C313.00677,75 310.645419,72.3085976 311.043846,69.0049843 L318.643054,5.99501566 Z" id="path-21"></path>
        <mask id="mask-22" maskContentUnits="userSpaceOnUse" maskUnits="objectBoundingBox" x="0" y="0" width="45.2005534" height="75" fill="white">
            <use xlink:href="#path-21"></use>
        </mask>
        <path d="M355.426134,5.99501566 C355.710089,2.68405993 358.446896,0 361.537542,0 L387.662946,0 C390.754228,0 393.125562,2.69140241 392.960289,5.99501566 L389.808025,69.0049843 C389.642384,72.3159401 386.821482,75 383.508886,75 L355.507327,75 C352.194049,75 349.738927,72.3085976 350.022253,69.0049843 L355.426134,5.99501566 Z" id="path-23"></path>
        <mask id="mask-24" maskContentUnits="userSpaceOnUse" maskUnits="objectBoundingBox" x="0" y="0" width="42.9684294" height="75" fill="white">
            <use xlink:href="#path-23"></use>
        </mask>
        <path d="M392.216425,5.99501566 C392.385024,2.68405993 395.028315,0 398.118961,0 L424.244365,0 C427.335647,0 429.800752,2.69140241 429.75058,5.99501566 L428.793643,69.0049843 C428.743359,72.3159401 426.015972,75 422.703375,75 L394.701816,75 C391.388538,75 388.839646,72.3085976 389.00787,69.0049843 L392.216425,5.99501566 Z" id="path-25"></path>
        <mask id="mask-26" maskContentUnits="userSpaceOnUse" maskUnits="objectBoundingBox" x="0" y="0" width="40.7513325" height="75" fill="white">
            <use xlink:href="#path-25"></use>
        </mask>
        <path d="M429.014015,5.99501566 C429.067257,2.68405993 431.617033,0 434.707679,0 L460.833083,0 C463.924365,0 466.483241,2.69140241 466.54817,5.99501566 L467.786559,69.0049843 C467.851632,72.3159401 465.217761,75 461.905164,75 L433.903605,75 C430.590327,75 427.947664,72.3085976 428.000787,69.0049843 L429.014015,5.99501566 Z" id="path-27"></path>
        <mask id="mask-28" maskContentUnits="userSpaceOnUse" maskUnits="objectBoundingBox" x="0" y="0" width="39.7877397" height="75" fill="white">
            <use xlink:href="#path-27"></use>
        </mask>
        <path d="M465.001153,5.99501566 C464.939037,2.68405993 467.395298,0 470.485945,0 L496.611349,0 C499.702631,0 502.355278,2.69140241 502.535308,5.99501566 L505.969024,69.0049843 C506.149454,72.3159401 503.609097,75 500.296501,75 L472.294942,75 C468.981664,75 466.245229,72.3085976 466.183252,69.0049843 L465.001153,5.99501566 Z" id="path-29"></path>
        <mask id="mask-30" maskContentUnits="userSpaceOnUse" maskUnits="objectBoundingBox" x="0" y="0" width="40.9780703" height="75" fill="white">
            <use xlink:href="#path-29"></use>
        </mask>
        <path d="M502.009378,5.99501566 C501.831906,2.68405993 504.194652,0 507.285298,0 L533.410702,0 C536.501984,0 539.248402,2.69140241 539.543533,5.99501566 L545.172576,69.0049843 C545.468363,72.3159401 543.021522,75 539.708925,75 L511.707366,75 C508.394088,75 505.563883,72.3085976 505.386804,69.0049843 L502.009378,5.99501566 Z" id="path-31"></path>
        <mask id="mask-32" maskContentUnits="userSpaceOnUse" maskUnits="objectBoundingBox" x="0" y="0" width="43.1968041" height="75" fill="white">
            <use xlink:href="#path-31"></use>
        </mask>
        <path d="M538.025436,5.99501566 C537.732607,2.68405993 540.001838,0 543.092484,0 L569.217888,0 C572.30917,0 575.149359,2.69140241 575.559591,5.99501566 L583.383961,69.0049843 C583.795105,72.3159401 581.441779,75 578.129182,75 L550.127623,75 C546.814345,75 543.890369,72.3085976 543.598189,69.0049843 L538.025436,5.99501566 Z" id="path-33"></path>
        <mask id="mask-34" maskContentUnits="userSpaceOnUse" maskUnits="objectBoundingBox" x="0" y="0" width="45.4305924" height="75" fill="white">
            <use xlink:href="#path-33"></use>
        </mask>
        <path d="M575.049217,5.99501566 C574.641032,2.68405993 576.816747,0 579.907393,0 L606.032797,0 C609.124079,0 612.058039,2.69140241 612.583372,5.99501566 L622.603069,69.0049843 C623.12957,72.3159401 620.869759,75 617.557162,75 L589.555603,75 C586.242325,75 583.224578,72.3085976 582.817297,69.0049843 L575.049217,5.99501566 Z" id="path-35"></path>
        <mask id="mask-36" maskContentUnits="userSpaceOnUse" maskUnits="objectBoundingBox" x="0" y="0" width="47.6792154" height="75" fill="white">
            <use xlink:href="#path-35"></use>
        </mask>
        <path d="M611.080591,5.99501566 C610.557049,2.68405993 612.639249,0 615.729895,0 L641.855299,0 C644.946581,0 647.974312,2.69140241 648.614746,5.99501566 L660.82977,69.0049843 C661.471628,72.3159401 659.305332,75 655.992735,75 L627.991176,75 C624.677898,75 621.56638,72.3085976 621.043998,69.0049843 L611.080591,5.99501566 Z" id="path-37"></path>
        <mask id="mask-38" maskContentUnits="userSpaceOnUse" maskUnits="objectBoundingBox" x="0" y="0" width="49.9424176" height="75" fill="white">
            <use xlink:href="#path-37"></use>
        </mask>
        <path d="M648.119409,5.99501566 C647.48051,2.68405993 649.469195,0 652.559842,0 L678.685245,0 C681.776528,0 684.89803,2.69140241 685.653564,5.99501566 L700.063915,69.0049843 C700.821129,72.3159401 698.748349,75 695.435752,75 L667.434193,75 C664.120915,75 660.915626,72.3085976 660.278143,69.0049843 L648.119409,5.99501566 Z" id="path-39"></path>
        <mask id="mask-40" maskContentUnits="userSpaceOnUse" maskUnits="objectBoundingBox" x="0" y="0" width="52.2199097" height="75" fill="white">
            <use xlink:href="#path-39"></use>
        </mask>
        <path d="M681.160448,5.99501566 C680.418023,2.68405993 682.322784,0 685.413431,0 L711.538834,0 C714.630117,0 717.835772,2.69140241 718.694603,5.99501566 L735.075119,69.0049843 C735.935858,72.3159401 733.947001,75 730.634405,75 L702.632846,75 C699.319568,75 696.030125,72.3085976 695.289346,69.0049843 L681.160448,5.99501566 Z" id="path-41"></path>
        <mask id="mask-42" maskContentUnits="userSpaceOnUse" maskUnits="objectBoundingBox" x="0" y="0" width="54.2757165" height="75" fill="white">
            <use xlink:href="#path-41"></use>
        </mask>
        <path d="M717.212919,5.99501566 C716.355138,2.68405993 718.166383,0 721.25703,0 L747.382434,0 C750.473716,0 753.773142,2.69140241 754.747074,5.99501566 L773.322917,69.0049843 C774.299013,72.3159401 772.403672,75 769.091075,75 L741.089516,75 C737.776238,75 734.393024,72.3085976 733.537145,69.0049843 L717.212919,5.99501566 Z" id="path-43"></path>
        <mask id="mask-44" maskContentUnits="userSpaceOnUse" maskUnits="objectBoundingBox" x="0" y="0" width="56.5794178" height="75" fill="white">
            <use xlink:href="#path-43"></use>
        </mask>
        <path d="M754.272309,5.99501566 C753.29917,2.68405993 755.016901,0 758.107547,0 L784.232951,0 C787.324233,0 790.717431,2.69140241 791.806464,5.99501566 L812.577634,69.0049843 C813.669087,72.3159401 811.86726,75 808.554664,75 L780.553105,75 C777.239827,75 773.762842,72.3085976 772.791861,69.0049843 L754.272309,5.99501566 Z" id="path-45"></path>
        <mask id="mask-46" maskContentUnits="userSpaceOnUse" maskUnits="objectBoundingBox" x="0" y="0" width="58.8964038" height="75" fill="white">
            <use xlink:href="#path-45"></use>
        </mask>
        <path d="M790.338407,5.99501566 C789.249912,2.68405993 790.874128,0 793.964774,0 L820.090178,0 C823.18146,0 826.668429,2.69140241 827.872562,5.99501566 L850.839059,69.0049843 C852.045869,72.3159401 850.337558,75 847.024961,75 L819.023402,75 C815.710124,75 812.139368,72.3085976 811.053287,69.0049843 L790.338407,5.99501566 Z" id="path-47"></path>
        <mask id="mask-48" maskContentUnits="userSpaceOnUse" maskUnits="objectBoundingBox" x="0" y="0" width="61.2262798" height="75" fill="white">
            <use xlink:href="#path-47"></use>
        </mask>
        <path d="M827.410996,5.99501566 C826.207144,2.68405993 827.737844,0 830.828491,0 L856.953894,0 C860.045177,0 863.625916,2.69140241 864.945151,5.99501566 L890.106975,69.0049843 C891.429141,72.3159401 889.814345,75 886.501749,75 L858.50019,75 C855.186912,75 851.522385,72.3085976 850.321202,69.0049843 L827.410996,5.99501566 Z" id="path-49"></path>
        <mask id="mask-50" maskContentUnits="userSpaceOnUse" maskUnits="objectBoundingBox" x="0" y="0" width="63.5686321" height="75" fill="white">
            <use xlink:href="#path-49"></use>
        </mask>
        <path d="M26.5558184,5.99501566 C27.8779851,2.68405993 31.4564283,0 34.5470748,0 L60.6724785,0 C63.7637608,0 65.2911557,2.69140241 64.0899734,5.99501566 L41.1797669,69.0049843 C39.9759149,72.3159401 36.3133761,75 33.0007795,75 L4.99922047,75 C1.68594249,75 0.0747599863,72.3085976 1.39399464,69.0049843 L26.5558184,5.99501566 Z" id="path-51"></path>
        <mask id="mask-52" maskContentUnits="userSpaceOnUse" maskUnits="objectBoundingBox" x="0" y="0" width="63.5664896" height="75" fill="white">
            <use xlink:href="#path-51"></use>
        </mask>
        <path d="M63.1516195,5.99501566 C64.3584294,2.68405993 67.8433574,0 70.9340039,0 L97.0594076,0 C100.15069,0 101.771856,2.69140241 100.685774,5.99501566 L79.9708949,69.0049843 C78.8823997,72.3159401 75.3133761,75 72.0007795,75 L43.9992205,75 C40.6859425,75 38.980989,72.3085976 40.1851226,69.0049843 L63.1516195,5.99501566 Z" id="path-53"></path>
        <mask id="mask-54" maskContentUnits="userSpaceOnUse" maskUnits="objectBoundingBox" x="0" y="0" width="61.2244022" height="75" fill="white">
            <use xlink:href="#path-53"></use>
        </mask>
        <path d="M99.7474206,5.99501566 C100.838874,2.68405993 104.230286,0 107.320933,0 L133.446337,0 C136.537619,0 138.252556,2.69140241 137.281576,5.99501566 L118.762023,69.0049843 C117.788885,72.3159401 114.313376,75 111.00078,75 L82.9992205,75 C79.6859425,75 77.887218,72.3085976 78.9762506,69.0049843 L99.7474206,5.99501566 Z" id="path-55"></path>
        <mask id="mask-56" maskContentUnits="userSpaceOnUse" maskUnits="objectBoundingBox" x="0" y="0" width="58.8947929" height="75" fill="white">
            <use xlink:href="#path-55"></use>
        </mask>
        <path d="M136.343222,5.99501566 C137.319318,2.68405993 140.617215,0 143.707862,0 L169.833266,0 C172.924548,0 174.733256,2.69140241 173.877377,5.99501566 L157.553151,69.0049843 C156.695369,72.3159401 153.313376,75 150.00078,75 L121.99922,75 C118.685942,75 116.793447,72.3085976 117.767379,69.0049843 L136.343222,5.99501566 Z" id="path-57"></path>
        <mask id="mask-58" maskContentUnits="userSpaceOnUse" maskUnits="objectBoundingBox" x="0" y="0" width="56.5780714" height="75" fill="white">
            <use xlink:href="#path-57"></use>
        </mask>
        <path d="M172.939023,5.99501566 C173.799762,2.68405993 177.004145,0 180.094791,0 L206.220195,0 C209.311477,0 211.213956,2.69140241 210.473178,5.99501566 L196.344279,69.0049843 C195.601854,72.3159401 192.313376,75 189.00078,75 L160.99922,75 C157.685942,75 155.699676,72.3085976 156.558507,69.0049843 L172.939023,5.99501566 Z" id="path-59"></path>
        <mask id="mask-60" maskContentUnits="userSpaceOnUse" maskUnits="objectBoundingBox" x="0" y="0" width="54.2746275" height="75" fill="white">
            <use xlink:href="#path-59"></use>
        </mask>
        <path d="M209.534824,5.99501566 C210.280206,2.68405993 213.391074,0 216.48172,0 L242.607124,0 C245.698406,0 247.694656,2.69140241 247.068979,5.99501566 L235.135407,69.0049843 C234.508339,72.3159401 231.313376,75 228.00078,75 L199.99922,75 C196.685942,75 194.605905,72.3085976 195.349635,69.0049843 L209.534824,5.99501566 Z" id="path-61"></path>
        <mask id="mask-62" maskContentUnits="userSpaceOnUse" maskUnits="objectBoundingBox" x="0" y="0" width="51.9848283" height="75" fill="white">
            <use xlink:href="#path-61"></use>
        </mask>
        <path d="M246.130625,5.99501566 C246.760651,2.68405993 249.778003,0 252.868649,0 L278.994053,0 C282.085335,0 284.175356,2.69140241 283.66478,5.99501566 L273.926535,69.0049843 C273.414824,72.3159401 270.313376,75 267.00078,75 L238.99922,75 C235.685942,75 233.512134,72.3085976 234.140763,69.0049843 L246.130625,5.99501566 Z" id="path-63"></path>
        <mask id="mask-64" maskContentUnits="userSpaceOnUse" maskUnits="objectBoundingBox" x="0" y="0" width="49.7090143" height="75" fill="white">
            <use xlink:href="#path-63"></use>
        </mask>
        <path d="M282.726426,5.99501566 C283.241095,2.68405993 286.164932,0 289.255578,0 L315.380982,0 C318.472264,0 320.656056,2.69140241 320.260581,5.99501566 L312.717663,69.0049843 C312.321309,72.3159401 309.313376,75 306.00078,75 L277.99922,75 C274.685942,75 272.418363,72.3085976 272.931891,69.0049843 L282.726426,5.99501566 Z" id="path-65"></path>
        <mask id="mask-66" maskContentUnits="userSpaceOnUse" maskUnits="objectBoundingBox" x="0" y="0" width="47.4474964" height="75" fill="white">
            <use xlink:href="#path-65"></use>
        </mask>
        <path d="M319.322227,5.99501566 C319.721539,2.68405993 322.551861,0 325.642507,0 L351.767911,0 C354.859193,0 357.136756,2.69140241 356.856382,5.99501566 L351.508791,69.0049843 C351.227793,72.3159401 348.313376,75 345.00078,75 L316.99922,75 C313.685942,75 311.324592,72.3085976 311.723019,69.0049843 L319.322227,5.99501566 Z" id="path-67"></path>
        <mask id="mask-68" maskContentUnits="userSpaceOnUse" maskUnits="objectBoundingBox" x="0" y="0" width="45.2005534" height="75" fill="white">
            <use xlink:href="#path-67"></use>
        </mask>
        <path d="M355.918028,5.99501566 C356.201983,2.68405993 358.93879,0 362.029436,0 L388.15484,0 C391.246122,0 393.617456,2.69140241 393.452183,5.99501566 L390.299919,69.0049843 C390.134278,72.3159401 387.313376,75 384.00078,75 L355.99922,75 C352.685942,75 350.230821,72.3085976 350.514147,69.0049843 L355.918028,5.99501566 Z" id="path-69"></path>
        <mask id="mask-70" maskContentUnits="userSpaceOnUse" maskUnits="objectBoundingBox" x="0" y="0" width="42.9684294" height="75" fill="white">
            <use xlink:href="#path-69"></use>
        </mask>
        <path d="M392.513829,5.99501566 C392.682428,2.68405993 395.325719,0 398.416365,0 L424.541769,0 C427.633051,0 430.098156,2.69140241 430.047984,5.99501566 L429.091047,69.0049843 C429.040763,72.3159401 426.313376,75 423.00078,75 L394.99922,75 C391.685942,75 389.13705,72.3085976 389.305274,69.0049843 L392.513829,5.99501566 Z" id="path-71"></path>
        <mask id="mask-72" maskContentUnits="userSpaceOnUse" maskUnits="objectBoundingBox" x="0" y="0" width="40.7513325" height="75" fill="white">
            <use xlink:href="#path-71"></use>
        </mask>
        <path d="M429.10963,5.99501566 C429.162872,2.68405993 431.712648,0 434.803295,0 L460.928698,0 C464.019981,0 466.578856,2.69140241 466.643785,5.99501566 L467.882175,69.0049843 C467.947248,72.3159401 465.313376,75 462.00078,75 L433.99922,75 C430.685942,75 428.043279,72.3085976 428.096402,69.0049843 L429.10963,5.99501566 Z" id="path-73"></path>
        <mask id="mask-74" maskContentUnits="userSpaceOnUse" maskUnits="objectBoundingBox" x="0" y="0" width="39.7877397" height="75" fill="white">
            <use xlink:href="#path-73"></use>
        </mask>
        <path d="M465.705431,5.99501566 C465.643316,2.68405993 468.099577,0 471.190224,0 L497.315627,0 C500.40691,0 503.059557,2.69140241 503.239586,5.99501566 L506.673303,69.0049843 C506.853733,72.3159401 504.313376,75 501.00078,75 L472.99922,75 C469.685942,75 466.949508,72.3085976 466.88753,69.0049843 L465.705431,5.99501566 Z" id="path-75"></path>
        <mask id="mask-76" maskContentUnits="userSpaceOnUse" maskUnits="objectBoundingBox" x="0" y="0" width="40.9780703" height="75" fill="white">
            <use xlink:href="#path-75"></use>
        </mask>
        <path d="M502.301232,5.99501566 C502.12376,2.68405993 504.486506,0 507.577153,0 L533.702556,0 C536.793839,0 539.540257,2.69140241 539.835387,5.99501566 L545.464431,69.0049843 C545.760217,72.3159401 543.313376,75 540.00078,75 L511.99922,75 C508.685942,75 505.855737,72.3085976 505.678658,69.0049843 L502.301232,5.99501566 Z" id="path-77"></path>
        <mask id="mask-78" maskContentUnits="userSpaceOnUse" maskUnits="objectBoundingBox" x="0" y="0" width="43.1968041" height="75" fill="white">
            <use xlink:href="#path-77"></use>
        </mask>
        <path d="M538.897034,5.99501566 C538.604205,2.68405993 540.873435,0 543.964082,0 L570.089485,0 C573.180768,0 576.020957,2.69140241 576.431188,5.99501566 L584.255559,69.0049843 C584.666702,72.3159401 582.313376,75 579.00078,75 L550.99922,75 C547.685942,75 544.761966,72.3085976 544.469786,69.0049843 L538.897034,5.99501566 Z" id="path-79"></path>
        <mask id="mask-80" maskContentUnits="userSpaceOnUse" maskUnits="objectBoundingBox" x="0" y="0" width="45.4305924" height="75" fill="white">
            <use xlink:href="#path-79"></use>
        </mask>
        <path d="M575.492835,5.99501566 C575.084649,2.68405993 577.260364,0 580.351011,0 L606.476414,0 C609.567697,0 612.501657,2.69140241 613.02699,5.99501566 L623.046687,69.0049843 C623.573187,72.3159401 621.313376,75 618.00078,75 L589.99922,75 C586.685942,75 583.668195,72.3085976 583.260914,69.0049843 L575.492835,5.99501566 Z" id="path-81"></path>
        <mask id="mask-82" maskContentUnits="userSpaceOnUse" maskUnits="objectBoundingBox" x="0" y="0" width="47.6792154" height="75" fill="white">
            <use xlink:href="#path-81"></use>
        </mask>
        <path d="M612.088636,5.99501566 C611.565093,2.68405993 613.647293,0 616.73794,0 L642.863344,0 C645.954626,0 648.982357,2.69140241 649.622791,5.99501566 L661.837815,69.0049843 C662.479672,72.3159401 660.313376,75 657.00078,75 L628.99922,75 C625.685942,75 622.574424,72.3085976 622.052042,69.0049843 L612.088636,5.99501566 Z" id="path-83"></path>
        <mask id="mask-84" maskContentUnits="userSpaceOnUse" maskUnits="objectBoundingBox" x="0" y="0" width="49.9424176" height="75" fill="white">
            <use xlink:href="#path-83"></use>
        </mask>
        <path d="M648.684437,5.99501566 C648.045537,2.68405993 650.034222,0 653.124869,0 L679.250273,0 C682.341555,0 685.463057,2.69140241 686.218592,5.99501566 L700.628943,69.0049843 C701.386157,72.3159401 699.313376,75 696.00078,75 L667.99922,75 C664.685942,75 661.480653,72.3085976 660.84317,69.0049843 L648.684437,5.99501566 Z" id="path-85"></path>
        <mask id="mask-86" maskContentUnits="userSpaceOnUse" maskUnits="objectBoundingBox" x="0" y="0" width="52.2199097" height="75" fill="white">
            <use xlink:href="#path-85"></use>
        </mask>
        <path d="M681.526822,5.99501566 C680.784398,2.68405993 682.689159,0 685.779805,0 L711.905209,0 C714.996491,0 718.202147,2.69140241 719.060977,5.99501566 L735.441493,69.0049843 C736.302233,72.3159401 734.313376,75 731.00078,75 L702.99922,75 C699.685942,75 696.396499,72.3085976 695.655721,69.0049843 L681.526822,5.99501566 Z" id="path-87"></path>
        <mask id="mask-88" maskContentUnits="userSpaceOnUse" maskUnits="objectBoundingBox" x="0" y="0" width="54.2757165" height="75" fill="white">
            <use xlink:href="#path-87"></use>
        </mask>
        <path d="M718.122623,5.99501566 C717.264842,2.68405993 719.076088,0 722.166734,0 L748.292138,0 C751.38342,0 754.682847,2.69140241 755.656778,5.99501566 L774.232621,69.0049843 C775.208718,72.3159401 773.313376,75 770.00078,75 L741.99922,75 C738.685942,75 735.302728,72.3085976 734.446849,69.0049843 L718.122623,5.99501566 Z" id="path-89"></path>
        <mask id="mask-90" maskContentUnits="userSpaceOnUse" maskUnits="objectBoundingBox" x="0" y="0" width="56.5794178" height="75" fill="white">
            <use xlink:href="#path-89"></use>
        </mask>
        <path d="M754.718424,5.99501566 C753.745286,2.68405993 755.463017,0 758.553663,0 L784.679067,0 C787.770349,0 791.163547,2.69140241 792.252579,5.99501566 L813.023749,69.0049843 C814.115202,72.3159401 812.313376,75 809.00078,75 L780.99922,75 C777.685942,75 774.208957,72.3085976 773.237977,69.0049843 L754.718424,5.99501566 Z" id="path-91"></path>
        <mask id="mask-92" maskContentUnits="userSpaceOnUse" maskUnits="objectBoundingBox" x="0" y="0" width="58.8964038" height="75" fill="white">
            <use xlink:href="#path-91"></use>
        </mask>
        <path d="M791.314226,5.99501566 C790.22573,2.68405993 791.849946,0 794.940592,0 L821.065996,0 C824.157278,0 827.644247,2.69140241 828.848381,5.99501566 L851.814877,69.0049843 C853.021687,72.3159401 851.313376,75 848.00078,75 L819.99922,75 C816.685942,75 813.115186,72.3085976 812.029105,69.0049843 L791.314226,5.99501566 Z" id="path-93"></path>
        <mask id="mask-94" maskContentUnits="userSpaceOnUse" maskUnits="objectBoundingBox" x="0" y="0" width="61.2262798" height="75" fill="white">
            <use xlink:href="#path-93"></use>
        </mask>
        <path d="M827.910027,5.99501566 C826.706175,2.68405993 828.236875,0 831.327521,0 L857.452925,0 C860.544207,0 864.124947,2.69140241 865.444182,5.99501566 L890.606005,69.0049843 C891.928172,72.3159401 890.313376,75 887.00078,75 L858.99922,75 C855.685942,75 852.021415,72.3085976 850.820233,69.0049843 L827.910027,5.99501566 Z" id="path-95"></path>
        <mask id="mask-96" maskContentUnits="userSpaceOnUse" maskUnits="objectBoundingBox" x="0" y="0" width="63.5686321" height="75" fill="white">
            <use xlink:href="#path-95"></use>
        </mask>
        <path d="M25.6223555,5.99501566 C26.9445222,2.68405993 30.5229653,0 33.6136119,0 L59.7390156,0 C62.8302979,0 64.3576927,2.69140241 63.1565104,5.99501566 L40.246304,69.0049843 C39.042452,72.3159401 35.3799131,75 32.0673166,75 L4.06575752,75 C0.752479547,75 -0.85870296,72.3085976 0.460531696,69.0049843 L25.6223555,5.99501566 Z" id="path-97"></path>
        <mask id="mask-98" maskContentUnits="userSpaceOnUse" maskUnits="objectBoundingBox" x="0" y="0" width="63.5664896" height="75" fill="white">
            <use xlink:href="#path-97"></use>
        </mask>
        <path d="M62.3527238,5.99501566 C63.5595337,2.68405993 67.0444616,0 70.1351082,0 L96.2605118,0 C99.3517942,0 100.97296,2.69140241 99.8868787,5.99501566 L79.1719992,69.0049843 C78.083504,72.3159401 74.5144803,75 71.2018838,75 L43.2003247,75 C39.8870468,75 38.1820932,72.3085976 39.3862269,69.0049843 L62.3527238,5.99501566 Z" id="path-99"></path>
        <mask id="mask-100" maskContentUnits="userSpaceOnUse" maskUnits="objectBoundingBox" x="0" y="0" width="61.2244022" height="75" fill="white">
            <use xlink:href="#path-99"></use>
        </mask>
        <path d="M99.0890799,5.99501566 C100.180533,2.68405993 103.571946,0 106.662592,0 L132.787996,0 C135.879278,0 137.594215,2.69140241 136.623235,5.99501566 L118.103682,69.0049843 C117.130544,72.3159401 113.655035,75 110.342439,75 L82.3408798,75 C79.0276019,75 77.2288773,72.3085976 78.31791,69.0049843 L99.0890799,5.99501566 Z" id="path-101"></path>
        <mask id="mask-102" maskContentUnits="userSpaceOnUse" maskUnits="objectBoundingBox" x="0" y="0" width="58.8947929" height="75" fill="white">
            <use xlink:href="#path-101"></use>
        </mask>
        <path d="M135.831616,5.99501566 C136.807712,2.68405993 140.10561,0 143.196257,0 L169.32166,0 C172.412943,0 174.22165,2.69140241 173.365771,5.99501566 L157.041545,69.0049843 C156.183764,72.3159401 152.801771,75 149.489174,75 L121.487615,75 C118.174337,75 116.281841,72.3085976 117.255773,69.0049843 L135.831616,5.99501566 Z" id="path-103"></path>
        <mask id="mask-104" maskContentUnits="userSpaceOnUse" maskUnits="objectBoundingBox" x="0" y="0" width="56.5780714" height="75" fill="white">
            <use xlink:href="#path-103"></use>
        </mask>
        <path d="M172.580516,5.99501566 C173.441256,2.68405993 176.645638,0 179.736285,0 L205.861688,0 C208.952971,0 210.855449,2.69140241 210.114671,5.99501566 L195.985772,69.0049843 C195.243348,72.3159401 191.95487,75 188.642273,75 L160.640714,75 C157.327436,75 155.341169,72.3085976 156.2,69.0049843 L172.580516,5.99501566 Z" id="path-105"></path>
        <mask id="mask-106" maskContentUnits="userSpaceOnUse" maskUnits="objectBoundingBox" x="0" y="0" width="54.2746275" height="75" fill="white">
            <use xlink:href="#path-105"></use>
        </mask>
        <path d="M208.335954,5.99501566 C209.081337,2.68405993 212.192204,0 215.28285,0 L241.408254,0 C244.499536,0 246.495786,2.69140241 245.870109,5.99501566 L233.936537,69.0049843 C233.309469,72.3159401 230.114506,75 226.80191,75 L198.800351,75 C195.487073,75 193.407035,72.3085976 194.150765,69.0049843 L208.335954,5.99501566 Z" id="path-107"></path>
        <mask id="mask-108" maskContentUnits="userSpaceOnUse" maskUnits="objectBoundingBox" x="0" y="0" width="51.9848283" height="75" fill="white">
            <use xlink:href="#path-107"></use>
        </mask>
        <path d="M245.098092,5.99501566 C245.728118,2.68405993 248.74547,0 251.836117,0 L277.96152,0 C281.052803,0 283.142823,2.69140241 282.632247,5.99501566 L272.894002,69.0049843 C272.382291,72.3159401 269.280843,75 265.968247,75 L237.966688,75 C234.65341,75 232.479601,72.3085976 233.10823,69.0049843 L245.098092,5.99501566 Z" id="path-109"></path>
        <mask id="mask-110" maskContentUnits="userSpaceOnUse" maskUnits="objectBoundingBox" x="0" y="0" width="49.7090143" height="75" fill="white">
            <use xlink:href="#path-109"></use>
        </mask>
        <path d="M281.86708,5.99501566 C282.381749,2.68405993 285.305586,0 288.396233,0 L314.521636,0 C317.612919,0 319.796711,2.69140241 319.401235,5.99501566 L311.858317,69.0049843 C311.461963,72.3159401 308.45403,75 305.141434,75 L277.139875,75 C273.826597,75 271.559017,72.3085976 272.072545,69.0049843 L281.86708,5.99501566 Z" id="path-111"></path>
        <mask id="mask-112" maskContentUnits="userSpaceOnUse" maskUnits="objectBoundingBox" x="0" y="0" width="47.4474964" height="75" fill="white">
            <use xlink:href="#path-111"></use>
        </mask>
        <path d="M318.643054,5.99501566 C319.042366,2.68405993 321.872688,0 324.963334,0 L351.088738,0 C354.18002,0 356.457583,2.69140241 356.177209,5.99501566 L350.829618,69.0049843 C350.548621,72.3159401 347.634203,75 344.321607,75 L316.320048,75 C313.00677,75 310.645419,72.3085976 311.043846,69.0049843 L318.643054,5.99501566 Z" id="path-113"></path>
        <mask id="mask-114" maskContentUnits="userSpaceOnUse" maskUnits="objectBoundingBox" x="0" y="0" width="45.2005534" height="75" fill="white">
            <use xlink:href="#path-113"></use>
        </mask>
        <path d="M355.426134,5.99501566 C355.710089,2.68405993 358.446896,0 361.537542,0 L387.662946,0 C390.754228,0 393.125562,2.69140241 392.960289,5.99501566 L389.808025,69.0049843 C389.642384,72.3159401 386.821482,75 383.508886,75 L355.507327,75 C352.194049,75 349.738927,72.3085976 350.022253,69.0049843 L355.426134,5.99501566 Z" id="path-115"></path>
        <mask id="mask-116" maskContentUnits="userSpaceOnUse" maskUnits="objectBoundingBox" x="0" y="0" width="42.9684294" height="75" fill="white">
            <use xlink:href="#path-115"></use>
        </mask>
        <path d="M391.216425,5.99501566 C391.385024,2.68405993 394.028315,0 397.118961,0 L423.244365,0 C426.335647,0 428.800752,2.69140241 428.75058,5.99501566 L427.793643,69.0049843 C427.743359,72.3159401 425.015972,75 421.703375,75 L393.701816,75 C390.388538,75 387.839646,72.3085976 388.00787,69.0049843 L391.216425,5.99501566 Z" id="path-117"></path>
        <mask id="mask-118" maskContentUnits="userSpaceOnUse" maskUnits="objectBoundingBox" x="0" y="0" width="40.7513325" height="75" fill="white">
            <use xlink:href="#path-117"></use>
        </mask>
        <path d="M428.014015,5.99501566 C428.067257,2.68405993 430.617033,0 433.707679,0 L459.833083,0 C462.924365,0 465.483241,2.69140241 465.54817,5.99501566 L466.786559,69.0049843 C466.851632,72.3159401 464.217761,75 460.905164,75 L432.903605,75 C429.590327,75 426.947664,72.3085976 427.000787,69.0049843 L428.014015,5.99501566 Z" id="path-119"></path>
        <mask id="mask-120" maskContentUnits="userSpaceOnUse" maskUnits="objectBoundingBox" x="0" y="0" width="39.7877397" height="75" fill="white">
            <use xlink:href="#path-119"></use>
        </mask>
        <path d="M465.001153,5.99501566 C464.939037,2.68405993 467.395298,0 470.485945,0 L496.611349,0 C499.702631,0 502.355278,2.69140241 502.535308,5.99501566 L505.969024,69.0049843 C506.149454,72.3159401 503.609097,75 500.296501,75 L472.294942,75 C468.981664,75 466.245229,72.3085976 466.183252,69.0049843 L465.001153,5.99501566 Z" id="path-121"></path>
        <mask id="mask-122" maskContentUnits="userSpaceOnUse" maskUnits="objectBoundingBox" x="0" y="0" width="40.9780703" height="75" fill="white">
            <use xlink:href="#path-121"></use>
        </mask>
        <path d="M501.009378,5.99501566 C500.831906,2.68405993 503.194652,0 506.285298,0 L532.410702,0 C535.501984,0 538.248402,2.69140241 538.543533,5.99501566 L544.172576,69.0049843 C544.468363,72.3159401 542.021522,75 538.708925,75 L510.707366,75 C507.394088,75 504.563883,72.3085976 504.386804,69.0049843 L501.009378,5.99501566 Z" id="path-123"></path>
        <mask id="mask-124" maskContentUnits="userSpaceOnUse" maskUnits="objectBoundingBox" x="0" y="0" width="43.1968041" height="75" fill="white">
            <use xlink:href="#path-123"></use>
        </mask>
        <path d="M538.025436,5.99501566 C537.732607,2.68405993 540.001838,0 543.092484,0 L569.217888,0 C572.30917,0 575.149359,2.69140241 575.559591,5.99501566 L583.383961,69.0049843 C583.795105,72.3159401 581.441779,75 578.129182,75 L550.127623,75 C546.814345,75 543.890369,72.3085976 543.598189,69.0049843 L538.025436,5.99501566 Z" id="path-125"></path>
        <mask id="mask-126" maskContentUnits="userSpaceOnUse" maskUnits="objectBoundingBox" x="0" y="0" width="45.4305924" height="75" fill="white">
            <use xlink:href="#path-125"></use>
        </mask>
        <path d="M575.049217,5.99501566 C574.641032,2.68405993 576.816747,0 579.907393,0 L606.032797,0 C609.124079,0 612.058039,2.69140241 612.583372,5.99501566 L622.603069,69.0049843 C623.12957,72.3159401 620.869759,75 617.557162,75 L589.555603,75 C586.242325,75 583.224578,72.3085976 582.817297,69.0049843 L575.049217,5.99501566 Z" id="path-127"></path>
        <mask id="mask-128" maskContentUnits="userSpaceOnUse" maskUnits="objectBoundingBox" x="0" y="0" width="47.6792154" height="75" fill="white">
            <use xlink:href="#path-127"></use>
        </mask>
        <path d="M611.080591,5.99501566 C610.557049,2.68405993 612.639249,0 615.729895,0 L641.855299,0 C644.946581,0 647.974312,2.69140241 648.614746,5.99501566 L660.82977,69.0049843 C661.471628,72.3159401 659.305332,75 655.992735,75 L627.991176,75 C624.677898,75 621.56638,72.3085976 621.043998,69.0049843 L611.080591,5.99501566 Z" id="path-129"></path>
        <mask id="mask-130" maskContentUnits="userSpaceOnUse" maskUnits="objectBoundingBox" x="0" y="0" width="49.9424176" height="75" fill="white">
            <use xlink:href="#path-129"></use>
        </mask>
        <path d="M648.119409,5.99501566 C647.48051,2.68405993 649.469195,0 652.559842,0 L678.685245,0 C681.776528,0 684.89803,2.69140241 685.653564,5.99501566 L700.063915,69.0049843 C700.821129,72.3159401 698.748349,75 695.435752,75 L667.434193,75 C664.120915,75 660.915626,72.3085976 660.278143,69.0049843 L648.119409,5.99501566 Z" id="path-131"></path>
        <mask id="mask-132" maskContentUnits="userSpaceOnUse" maskUnits="objectBoundingBox" x="0" y="0" width="52.2199097" height="75" fill="white">
            <use xlink:href="#path-131"></use>
        </mask>
        <path d="M681.160448,5.99501566 C680.418023,2.68405993 682.322784,0 685.413431,0 L711.538834,0 C714.630117,0 717.835772,2.69140241 718.694603,5.99501566 L735.075119,69.0049843 C735.935858,72.3159401 733.947001,75 730.634405,75 L702.632846,75 C699.319568,75 696.030125,72.3085976 695.289346,69.0049843 L681.160448,5.99501566 Z" id="path-133"></path>
        <mask id="mask-134" maskContentUnits="userSpaceOnUse" maskUnits="objectBoundingBox" x="0" y="0" width="54.2757165" height="75" fill="white">
            <use xlink:href="#path-133"></use>
        </mask>
        <path d="M717.212919,5.99501566 C716.355138,2.68405993 718.166383,0 721.25703,0 L747.382434,0 C750.473716,0 753.773142,2.69140241 754.747074,5.99501566 L773.322917,69.0049843 C774.299013,72.3159401 772.403672,75 769.091075,75 L741.089516,75 C737.776238,75 734.393024,72.3085976 733.537145,69.0049843 L717.212919,5.99501566 Z" id="path-135"></path>
        <mask id="mask-136" maskContentUnits="userSpaceOnUse" maskUnits="objectBoundingBox" x="0" y="0" width="56.5794178" height="75" fill="white">
            <use xlink:href="#path-135"></use>
        </mask>
        <path d="M754.272309,5.99501566 C753.29917,2.68405993 755.016901,0 758.107547,0 L784.232951,0 C787.324233,0 790.717431,2.69140241 791.806464,5.99501566 L812.577634,69.0049843 C813.669087,72.3159401 811.86726,75 808.554664,75 L780.553105,75 C777.239827,75 773.762842,72.3085976 772.791861,69.0049843 L754.272309,5.99501566 Z" id="path-137"></path>
        <mask id="mask-138" maskContentUnits="userSpaceOnUse" maskUnits="objectBoundingBox" x="0" y="0" width="58.8964038" height="75" fill="white">
            <use xlink:href="#path-137"></use>
        </mask>
        <path d="M790.338407,5.99501566 C789.249912,2.68405993 790.874128,0 793.964774,0 L820.090178,0 C823.18146,0 826.668429,2.69140241 827.872562,5.99501566 L850.839059,69.0049843 C852.045869,72.3159401 850.337558,75 847.024961,75 L819.023402,75 C815.710124,75 812.139368,72.3085976 811.053287,69.0049843 L790.338407,5.99501566 Z" id="path-139"></path>
        <mask id="mask-140" maskContentUnits="userSpaceOnUse" maskUnits="objectBoundingBox" x="0" y="0" width="61.2262798" height="75" fill="white">
            <use xlink:href="#path-139"></use>
        </mask>
        <path d="M827.410996,5.99501566 C826.207144,2.68405993 827.737844,0 830.828491,0 L856.953894,0 C860.045177,0 863.625916,2.69140241 864.945151,5.99501566 L890.106975,69.0049843 C891.429141,72.3159401 889.814345,75 886.501749,75 L858.50019,75 C855.186912,75 851.522385,72.3085976 850.321202,69.0049843 L827.410996,5.99501566 Z" id="path-141"></path>
        <mask id="mask-142" maskContentUnits="userSpaceOnUse" maskUnits="objectBoundingBox" x="0" y="0" width="63.5686321" height="75" fill="white">
            <use xlink:href="#path-141"></use>
        </mask>
    </defs>
    <g id="Page-1" stroke="none" stroke-width="1" fill="none" fill-rule="evenodd">
        <rect id="Rectangle-32" fill-opacity="0.15" fill="#000000" x="127" y="645" width="394" height="30" rx="6"></rect>
        <g id="office" transform="translate(3.000000, 2.000000)">
            <rect id="Wall" fill="#878787" x="22" y="43" width="850" height="600"></rect>
            <g id="Group-13" transform="translate(19.000000, 79.000000)">
                <rect id="Wall" fill="#878787" x="1" y="0" width="856" height="565"></rect>
                <rect id="Rectangle-28" fill="#877B7B" x="1" y="5" width="43" height="30" rx="2"></rect>
                <rect id="Rectangle-28" fill="#877B7B" x="7" y="40" width="80" height="30" rx="2"></rect>
                <rect id="Rectangle-28" fill="#877B7B" x="49" y="5" width="80" height="30" rx="2"></rect>
                <rect id="Rectangle-28" fill="#877B7B" x="92" y="40" width="80" height="30" rx="2"></rect>
                <rect id="Rectangle-28" fill="#877B7B" x="134" y="5" width="80" height="30" rx="2"></rect>
                <rect id="Rectangle-28" fill="#877B7B" x="177" y="40" width="80" height="30" rx="2"></rect>
                <rect id="Rectangle-28" fill="#877B7B" x="219" y="5" width="80" height="30" rx="2"></rect>
                <rect id="Rectangle-28" fill="#877B7B" x="1" y="75" width="43" height="30" rx="2"></rect>
                <rect id="Rectangle-28" fill="#877B7B" x="7" y="110" width="80" height="30" rx="2"></rect>
                <rect id="Rectangle-28" fill="#877B7B" x="49" y="75" width="80" height="30" rx="2"></rect>
                <rect id="Rectangle-28" fill="#877B7B" x="92" y="110" width="80" height="30" rx="2"></rect>
                <rect id="Rectangle-28" fill="#877B7B" x="134" y="75" width="80" height="30" rx="2"></rect>
                <rect id="Rectangle-28" fill="#877B7B" x="177" y="110" width="80" height="30" rx="2"></rect>
                <rect id="Rectangle-28" fill="#877B7B" x="219" y="75" width="80" height="30" rx="2"></rect>
                <rect id="Rectangle-28" fill="#877B7B" x="1" y="145" width="43" height="30" rx="2"></rect>
                <rect id="Rectangle-28" fill="#877B7B" x="7" y="180" width="80" height="30" rx="2"></rect>
                <rect id="Rectangle-28" fill="#877B7B" x="49" y="145" width="80" height="30" rx="2"></rect>
                <rect id="Rectangle-28" fill="#877B7B" x="92" y="180" width="80" height="30" rx="2"></rect>
                <rect id="Rectangle-28" fill="#877B7B" x="134" y="145" width="80" height="30" rx="2"></rect>
                <rect id="Rectangle-28" fill="#877B7B" x="177" y="180" width="80" height="30" rx="2"></rect>
                <rect id="Rectangle-28" fill="#877B7B" x="219" y="145" width="80" height="30" rx="2"></rect>
                <rect id="Rectangle-28" fill="#877B7B" x="1" y="215" width="42.4691358" height="30" rx="2"></rect>
                <rect id="Rectangle-28" fill="#877B7B" x="7" y="250" width="80" height="30" rx="2"></rect>
                <rect id="Rectangle-28" fill="#877B7B" x="49" y="215" width="80" height="30" rx="2"></rect>
                <rect id="Rectangle-28" fill="#877B7B" x="92" y="250" width="80" height="30" rx="2"></rect>
                <rect id="Rectangle-28" fill="#877B7B" x="134" y="215" width="80" height="30" rx="2"></rect>
                <rect id="Rectangle-28" fill="#877B7B" x="177" y="250" width="80" height="30" rx="2"></rect>
                <rect id="Rectangle-28" fill="#877B7B" x="219" y="215" width="80" height="30" rx="2"></rect>
                <rect id="Rectangle-28" fill="#877B7B" x="262" y="40" width="80" height="30" rx="2"></rect>
                <rect id="Rectangle-28" fill="#877B7B" x="304" y="5" width="80" height="30" rx="2"></rect>
                <rect id="Rectangle-28" fill="#877B7B" x="347" y="40" width="80" height="30" rx="2"></rect>
                <rect id="Rectangle-28" fill="#877B7B" x="389" y="5" width="80" height="30" rx="2"></rect>
                <rect id="Rectangle-28" fill="#877B7B" x="432" y="40" width="80" height="30" rx="2"></rect>
                <rect id="Rectangle-28" fill="#877B7B" x="474" y="5" width="80" height="30" rx="2"></rect>
                <rect id="Rectangle-28" fill="#877B7B" x="517" y="40" width="80" height="30" rx="2"></rect>
                <rect id="Rectangle-28" fill="#877B7B" x="559" y="5" width="80" height="30" rx="2"></rect>
                <rect id="Rectangle-28" fill="#877B7B" x="262" y="110" width="80" height="30" rx="2"></rect>
                <rect id="Rectangle-28" fill="#877B7B" x="304" y="75" width="80" height="30" rx="2"></rect>
                <rect id="Rectangle-28" fill="#877B7B" x="347" y="110" width="80" height="30" rx="2"></rect>
                <rect id="Rectangle-28" fill="#877B7B" x="389" y="75" width="80" height="30" rx="2"></rect>
                <rect id="Rectangle-28" fill="#877B7B" x="432" y="110" width="80" height="30" rx="2"></rect>
                <rect id="Rectangle-28" fill="#877B7B" x="474" y="75" width="80" height="30" rx="2"></rect>
                <rect id="Rectangle-28" fill="#877B7B" x="517" y="110" width="80" height="30" rx="2"></rect>
                <rect id="Rectangle-28" fill="#877B7B" x="559" y="75" width="80" height="30" rx="2"></rect>
                <rect id="Rectangle-28" fill="#877B7B" x="262" y="180" width="80" height="30" rx="2"></rect>
                <rect id="Rectangle-28" fill="#877B7B" x="304" y="145" width="80" height="30" rx="2"></rect>
                <rect id="Rectangle-28" fill="#877B7B" x="347" y="180" width="80" height="30" rx="2"></rect>
                <rect id="Rectangle-28" fill="#877B7B" x="389" y="145" width="80" height="30" rx="2"></rect>
                <rect id="Rectangle-28" fill="#877B7B" x="432" y="180" width="80" height="30" rx="2"></rect>
                <rect id="Rectangle-28" fill="#877B7B" x="474" y="145" width="80" height="30" rx="2"></rect>
                <rect id="Rectangle-28" fill="#877B7B" x="517" y="180" width="80" height="30" rx="2"></rect>
                <rect id="Rectangle-28" fill="#877B7B" x="559" y="145" width="80" height="30" rx="2"></rect>
                <rect id="Rectangle-28" fill="#877B7B" x="262" y="250" width="80" height="30" rx="2"></rect>
                <rect id="Rectangle-28" fill="#877B7B" x="304" y="215" width="80" height="30" rx="2"></rect>
                <rect id="Rectangle-28" fill="#877B7B" x="347" y="250" width="80" height="30" rx="2"></rect>
                <rect id="Rectangle-28" fill="#877B7B" x="389" y="215" width="80" height="30" rx="2"></rect>
                <rect id="Rectangle-28" fill="#877B7B" x="432" y="250" width="80" height="30" rx="2"></rect>
                <rect id="Rectangle-28" fill="#877B7B" x="474" y="215" width="80" height="30" rx="2"></rect>
                <rect id="Rectangle-28" fill="#877B7B" x="517" y="250" width="80" height="30" rx="2"></rect>
                <rect id="Rectangle-28" fill="#877B7B" x="559" y="215" width="80" height="30" rx="2"></rect>
                <rect id="Rectangle-28" fill="#877B7B" x="602" y="40" width="80" height="30" rx="2"></rect>
                <rect id="Rectangle-28" fill="#877B7B" x="644" y="5" width="80" height="30" rx="2"></rect>
                <rect id="Rectangle-28" fill="#877B7B" x="687" y="40" width="80" height="30" rx="2"></rect>
                <rect id="Rectangle-28" fill="#877B7B" x="729" y="5" width="80" height="30" rx="2"></rect>
                <rect id="Rectangle-28" fill="#877B7B" x="772" y="40" width="80" height="30" rx="2"></rect>
                <rect id="Rectangle-28" fill="#877B7B" x="814" y="5" width="43" height="30" rx="2"></rect>
                <rect id="Rectangle-28" fill="#877B7B" x="602" y="110" width="80" height="30" rx="2"></rect>
                <rect id="Rectangle-28" fill="#877B7B" x="644" y="75" width="80" height="30" rx="2"></rect>
                <rect id="Rectangle-28" fill="#877B7B" x="687" y="110" width="80" height="30" rx="2"></rect>
                <rect id="Rectangle-28" fill="#877B7B" x="729" y="75" width="80" height="30" rx="2"></rect>
                <rect id="Rectangle-28" fill="#877B7B" x="772" y="110" width="80" height="30" rx="2"></rect>
                <rect id="Rectangle-28" fill="#877B7B" x="814" y="75" width="43" height="30" rx="2"></rect>
                <rect id="Rectangle-28" fill="#877B7B" x="602" y="180" width="80" height="30" rx="2"></rect>
                <rect id="Rectangle-28" fill="#877B7B" x="644" y="145" width="80" height="30" rx="2"></rect>
                <rect id="Rectangle-28" fill="#877B7B" x="687" y="180" width="80" height="30" rx="2"></rect>
                <rect id="Rectangle-28" fill="#877B7B" x="729" y="145" width="80" height="30" rx="2"></rect>
                <rect id="Rectangle-28" fill="#877B7B" x="772" y="180" width="80" height="30" rx="2"></rect>
                <rect id="Rectangle-28" fill="#877B7B" x="814" y="145" width="43" height="30" rx="2"></rect>
                <rect id="Rectangle-28" fill="#877B7B" x="602" y="250" width="80" height="30" rx="2"></rect>
                <rect id="Rectangle-28" fill="#877B7B" x="644" y="215" width="80" height="30" rx="2"></rect>
                <rect id="Rectangle-28" fill="#877B7B" x="687" y="250" width="80" height="30" rx="2"></rect>
                <rect id="Rectangle-28" fill="#877B7B" x="729" y="215" width="80" height="30" rx="2"></rect>
                <rect id="Rectangle-28" fill="#877B7B" x="772" y="250" width="80" height="30" rx="2"></rect>
                <rect id="Rectangle-28" fill="#877B7B" x="814" y="215" width="43" height="30" rx="2"></rect>
                <rect id="Rectangle-28" fill="#877B7B" x="0.530864198" y="285" width="42.4691358" height="30" rx="2"></rect>
                <rect id="Rectangle-28" fill="#877B7B" x="8" y="320" width="80" height="30" rx="2"></rect>
                <rect id="Rectangle-28" fill="#877B7B" x="50" y="285" width="80" height="30" rx="2"></rect>
                <rect id="Rectangle-28" fill="#877B7B" x="93" y="320" width="80" height="30" rx="2"></rect>
                <rect id="Rectangle-28" fill="#877B7B" x="135" y="285" width="80" height="30" rx="2"></rect>
                <rect id="Rectangle-28" fill="#877B7B" x="178" y="320" width="80" height="30" rx="2"></rect>
                <rect id="Rectangle-28" fill="#877B7B" x="220" y="285" width="80" height="30" rx="2"></rect>
                <rect id="Rectangle-28" fill="#877B7B" x="0.530864198" y="355" width="42.4691358" height="30" rx="2"></rect>
                <rect id="Rectangle-28" fill="#877B7B" x="8" y="390" width="80" height="30" rx="2"></rect>
                <rect id="Rectangle-28" fill="#877B7B" x="50" y="355" width="80" height="30" rx="2"></rect>
                <rect id="Rectangle-28" fill="#877B7B" x="93" y="390" width="80" height="30" rx="2"></rect>
                <rect id="Rectangle-28" fill="#877B7B" x="135" y="355" width="80" height="30" rx="2"></rect>
                <rect id="Rectangle-28" fill="#877B7B" x="178" y="390" width="80" height="30" rx="2"></rect>
                <rect id="Rectangle-28" fill="#877B7B" x="220" y="355" width="80" height="30" rx="2"></rect>
                <rect id="Rectangle-28" fill="#877B7B" x="0.530864198" y="425" width="42.4691358" height="30" rx="2"></rect>
                <rect id="Rectangle-28" fill="#877B7B" x="8" y="460" width="80" height="30" rx="2"></rect>
                <rect id="Rectangle-28" fill="#877B7B" x="50" y="425" width="80" height="30" rx="2"></rect>
                <rect id="Rectangle-28" fill="#877B7B" x="93" y="460" width="80" height="30" rx="2"></rect>
                <rect id="Rectangle-28" fill="#877B7B" x="135" y="425" width="80" height="30" rx="2"></rect>
                <rect id="Rectangle-28" fill="#877B7B" x="178" y="460" width="80" height="30" rx="2"></rect>
                <rect id="Rectangle-28" fill="#877B7B" x="220" y="425" width="80" height="30" rx="2"></rect>
                <rect id="Rectangle-28" fill="#877B7B" x="0.530864198" y="495" width="42.4691358" height="30" rx="2"></rect>
                <rect id="Rectangle-28" fill="#877B7B" x="8" y="530" width="80" height="30" rx="2"></rect>
                <rect id="Rectangle-28" fill="#877B7B" x="50" y="495" width="80" height="30" rx="2"></rect>
                <rect id="Rectangle-28" fill="#877B7B" x="93" y="530" width="80" height="30" rx="2"></rect>
                <rect id="Rectangle-28" fill="#877B7B" x="135" y="495" width="80" height="30" rx="2"></rect>
                <rect id="Rectangle-28" fill="#877B7B" x="178" y="530" width="80" height="30" rx="2"></rect>
                <rect id="Rectangle-28" fill="#877B7B" x="220" y="495" width="80" height="30" rx="2"></rect>
                <rect id="Rectangle-28" fill="#877B7B" x="263" y="320" width="80" height="30" rx="2"></rect>
                <rect id="Rectangle-28" fill="#877B7B" x="305" y="285" width="80" height="30" rx="2"></rect>
                <rect id="Rectangle-28" fill="#877B7B" x="348" y="320" width="80" height="30" rx="2"></rect>
                <rect id="Rectangle-28" fill="#877B7B" x="390" y="285" width="80" height="30" rx="2"></rect>
                <rect id="Rectangle-28" fill="#877B7B" x="433" y="320" width="80" height="30" rx="2"></rect>
                <rect id="Rectangle-28" fill="#877B7B" x="475" y="285" width="80" height="30" rx="2"></rect>
                <rect id="Rectangle-28" fill="#877B7B" x="518" y="320" width="80" height="30" rx="2"></rect>
                <rect id="Rectangle-28" fill="#877B7B" x="560" y="285" width="80" height="30" rx="2"></rect>
                <rect id="Rectangle-28" fill="#877B7B" x="263" y="390" width="80" height="30" rx="2"></rect>
                <rect id="Rectangle-28" fill="#877B7B" x="305" y="355" width="80" height="30" rx="2"></rect>
                <rect id="Rectangle-28" fill="#877B7B" x="348" y="390" width="80" height="30" rx="2"></rect>
                <rect id="Rectangle-28" fill="#877B7B" x="390" y="355" width="80" height="30" rx="2"></rect>
                <rect id="Rectangle-28" fill="#877B7B" x="433" y="390" width="80" height="30" rx="2"></rect>
                <rect id="Rectangle-28" fill="#877B7B" x="475" y="355" width="80" height="30" rx="2"></rect>
                <rect id="Rectangle-28" fill="#877B7B" x="518" y="390" width="80" height="30" rx="2"></rect>
                <rect id="Rectangle-28" fill="#877B7B" x="560" y="355" width="80" height="30" rx="2"></rect>
                <rect id="Rectangle-28" fill="#877B7B" x="263" y="460" width="80" height="30" rx="2"></rect>
                <rect id="Rectangle-28" fill="#877B7B" x="305" y="425" width="80" height="30" rx="2"></rect>
                <rect id="Rectangle-28" fill="#877B7B" x="348" y="460" width="80" height="30" rx="2"></rect>
                <rect id="Rectangle-28" fill="#877B7B" x="390" y="425" width="80" height="30" rx="2"></rect>
                <rect id="Rectangle-28" fill="#877B7B" x="433" y="460" width="80" height="30" rx="2"></rect>
                <rect id="Rectangle-28" fill="#877B7B" x="475" y="425" width="80" height="30" rx="2"></rect>
                <rect id="Rectangle-28" fill="#877B7B" x="518" y="460" width="80" height="30" rx="2"></rect>
                <rect id="Rectangle-28" fill="#877B7B" x="560" y="425" width="80" height="30" rx="2"></rect>
                <rect id="Rectangle-28" fill="#877B7B" x="263" y="530" width="80" height="30" rx="2"></rect>
                <rect id="Rectangle-28" fill="#877B7B" x="305" y="495" width="80" height="30" rx="2"></rect>
                <rect id="Rectangle-28" fill="#877B7B" x="348" y="530" width="80" height="30" rx="2"></rect>
                <rect id="Rectangle-28" fill="#877B7B" x="390" y="495" width="80" height="30" rx="2"></rect>
                <rect id="Rectangle-28" fill="#877B7B" x="433" y="530" width="80" height="30" rx="2"></rect>
                <rect id="Rectangle-28" fill="#877B7B" x="475" y="495" width="80" height="30" rx="2"></rect>
                <rect id="Rectangle-28" fill="#877B7B" x="518" y="530" width="80" height="30" rx="2"></rect>
                <rect id="Rectangle-28" fill="#877B7B" x="560" y="495" width="80" height="30" rx="2"></rect>
                <rect id="Rectangle-28" fill="#877B7B" x="603" y="320" width="80" height="30" rx="2"></rect>
                <rect id="Rectangle-28" fill="#877B7B" x="645" y="285" width="80" height="30" rx="2"></rect>
                <rect id="Rectangle-28" fill="#877B7B" x="688" y="320" width="80" height="30" rx="2"></rect>
                <rect id="Rectangle-28" fill="#877B7B" x="730" y="285" width="80" height="30" rx="2"></rect>
                <rect id="Rectangle-28" fill="#877B7B" x="773" y="320" width="80" height="30" rx="2"></rect>
                <rect id="Rectangle-28" fill="#877B7B" x="815" y="285" width="42" height="30" rx="2"></rect>
                <rect id="Rectangle-28" fill="#877B7B" x="603" y="390" width="80" height="30" rx="2"></rect>
                <rect id="Rectangle-28" fill="#877B7B" x="645" y="355" width="80" height="30" rx="2"></rect>
                <rect id="Rectangle-28" fill="#877B7B" x="688" y="390" width="80" height="30" rx="2"></rect>
                <rect id="Rectangle-28" fill="#877B7B" x="730" y="355" width="80" height="30" rx="2"></rect>
                <rect id="Rectangle-28" fill="#877B7B" x="773" y="390" width="80" height="30" rx="2"></rect>
                <rect id="Rectangle-28" fill="#877B7B" x="815" y="355" width="42" height="30" rx="2"></rect>
                <rect id="Rectangle-28" fill="#877B7B" x="603" y="460" width="80" height="30" rx="2"></rect>
                <rect id="Rectangle-28" fill="#877B7B" x="645" y="425" width="80" height="30" rx="2"></rect>
                <rect id="Rectangle-28" fill="#877B7B" x="688" y="460" width="80" height="30" rx="2"></rect>
                <rect id="Rectangle-28" fill="#877B7B" x="730" y="425" width="80" height="30" rx="2"></rect>
                <rect id="Rectangle-28" fill="#877B7B" x="773" y="460" width="80" height="30" rx="2"></rect>
                <rect id="Rectangle-28" fill="#877B7B" x="815" y="425" width="42" height="30" rx="2"></rect>
                <rect id="Rectangle-28" fill="#877B7B" x="603" y="530" width="80" height="30" rx="2"></rect>
                <rect id="Rectangle-28" fill="#877B7B" x="645" y="495" width="80" height="30" rx="2"></rect>
                <rect id="Rectangle-28" fill="#877B7B" x="688" y="530" width="80" height="30" rx="2"></rect>
                <rect id="Rectangle-28" fill="#877B7B" x="730" y="495" width="80" height="30" rx="2"></rect>
                <rect id="Rectangle-28" fill="#877B7B" x="773" y="530" width="80" height="30" rx="2"></rect>
                <rect id="Rectangle-28" fill="#877B7B" x="815" y="495" width="42" height="30" rx="2"></rect>
                <rect id="Rectangle-29" fill-opacity="0.103855299" fill="#000000" x="837" y="0" width="20" height="565"></rect>
                <rect id="Rectangle-29" fill-opacity="0.103855299" fill="#000000" x="1" y="0" width="20" height="565"></rect>
            </g>
            <g id="Door" transform="translate(572.000000, 253.000000)">
                <rect id="Rectangle" fill="#A1A9B3" x="40" y="0" width="200" height="380"></rect>
                <rect id="Rectangle" fill="#DAE6F3" x="50" y="11" width="180" height="364"></rect>
                <circle id="Oval-2" stroke="#A1A9B3" stroke-width="5" fill="#B8C1CC" cx="72.5" cy="189.5" r="7.5"></circle>
                <rect id="Rectangle" fill="#4C4949" x="0" y="365" width="280" height="25"></rect>
            </g>
            <g id="Window" transform="translate(342.000000, 254.000000)">
                <rect id="Rectangle" fill="#BFBFBF" x="0" y="0" width="200" height="240"></rect>
                <rect id="Rectangle" fill="#DAE5F2" x="10" y="12" width="180" height="216"></rect>
                <rect id="Rectangle-4" fill-opacity="0.6" fill="#FFFFFF" x="30" y="37.2" width="140" height="18" rx="8"></rect>
            </g>
            <g id="Window" transform="translate(92.000000, 254.000000)">
                <rect id="Rectangle" fill="#BFBFBF" x="0" y="0" width="200" height="240"></rect>
                <rect id="Rectangle" fill="#DAE5F2" x="10" y="12" width="180" height="216"></rect>
                <rect id="Rectangle-4" fill-opacity="0.6" fill="#FFFFFF" x="30" y="37.2" width="140" height="18" rx="8"></rect>
            </g>
            <path d="M22.3370036,37.7591095 C23.2579097,34.5784412 26.6998635,32 30.001003,32 L863.686331,32 C866.998135,32 870.438201,34.5722046 871.374024,37.7591095 L890.308859,102.24089 C891.24285,105.421559 889.306936,108 885.991919,108 L8.00808103,108 C4.6899095,108 2.7447362,105.427795 3.66744798,102.24089 L22.3370036,37.7591095 Z" id="Rectangle" fill="#4C4949"></path>
            <g id="Group-12" transform="translate(85.000000, 130.000000)">
                <use id="Rectangle-25" stroke="#52B7D9" mask="url(#mask-2)" stroke-width="20" fill="#F3F3F3" xlink:href="#path-1"></use>
                <path d="M75.7,51.348 C75.7,49.2359894 76.1033293,47.2413427 76.91,45.364 C77.7166707,43.4866573 78.8166597,41.8513403 80.21,40.458 C81.6033403,39.0646597 83.2386573,37.9646707 85.116,37.158 C86.9933427,36.3513293 88.9879894,35.948 91.1,35.948 C93.2120106,35.948 95.2066573,36.3513293 97.084,37.158 C98.9613427,37.9646707 100.59666,39.0646597 101.99,40.458 C103.38334,41.8513403 104.483329,43.4866573 105.29,45.364 C106.096671,47.2413427 106.5,49.2359894 106.5,51.348 C106.5,53.4600106 106.096671,55.4546573 105.29,57.332 C104.483329,59.2093427 103.38334,60.8446597 101.99,62.238 C100.59666,63.6313403 98.9613427,64.7313293 97.084,65.538 C95.2066573,66.3446707 93.2120106,66.748 91.1,66.748 C88.9879894,66.748 86.9933427,66.3446707 85.116,65.538 C83.2386573,64.7313293 81.6033403,63.6313403 80.21,62.238 C78.8166597,60.8446597 77.7166707,59.2093427 76.91,57.332 C76.1033293,55.4546573 75.7,53.4600106 75.7,51.348 Z M84.94,51.348 C84.94,52.1986709 85.1013317,52.9979963 85.424,53.746 C85.7466683,54.4940037 86.1866639,55.1466639 86.744,55.704 C87.3013361,56.2613361 87.9539963,56.7013317 88.702,57.024 C89.4500037,57.3466683 90.2493291,57.508 91.1,57.508 C91.9506709,57.508 92.7499963,57.3466683 93.498,57.024 C94.2460037,56.7013317 94.8986639,56.2613361 95.456,55.704 C96.0133361,55.1466639 96.4533317,54.4940037 96.776,53.746 C97.0986683,52.9979963 97.26,52.1986709 97.26,51.348 C97.26,50.4973291 97.0986683,49.6980037 96.776,48.95 C96.4533317,48.2019963 96.0133361,47.5493361 95.456,46.992 C94.8986639,46.4346639 94.2460037,45.9946683 93.498,45.672 C92.7499963,45.3493317 91.9506709,45.188 91.1,45.188 C90.2493291,45.188 89.4500037,45.3493317 88.702,45.672 C87.9539963,45.9946683 87.3013361,46.4346639 86.744,46.992 C86.1866639,47.5493361 85.7466683,48.2019963 85.424,48.95 C85.1013317,49.6980037 84.94,50.4973291 84.94,51.348 Z M107.952,51.348 C107.952,49.8519925 108.135331,48.4366733 108.502,47.102 C108.868668,45.7673267 109.469996,44.5573388 110.306,43.472 C111.142004,42.3866612 112.219993,41.4553372 113.54,40.678 C114.860007,39.9006628 116.473324,39.3213352 118.38,38.94 L118.38,36.652 L128.324,36.652 L128.324,38.94 C130.201343,39.3213352 131.807327,39.9006628 133.142,40.678 C134.476673,41.4553372 135.554663,42.3866612 136.376,43.472 C137.197337,44.5573388 137.798665,45.7673267 138.18,47.102 C138.561335,48.4366733 138.752,49.8519925 138.752,51.348 C138.752,52.8440075 138.561335,54.2593267 138.18,55.594 C137.798665,56.9286733 137.197337,58.1386612 136.376,59.224 C135.554663,60.3093388 134.476673,61.247996 133.142,62.04 C131.807327,62.832004 130.201343,63.4039982 128.324,63.756 L128.324,66 L118.38,66 L118.38,63.756 C116.473324,63.4039982 114.860007,62.832004 113.54,62.04 C112.219993,61.247996 111.142004,60.3093388 110.306,59.224 C109.469996,58.1386612 108.868668,56.9286733 108.502,55.594 C108.135331,54.2593267 107.952,52.8440075 107.952,51.348 Z M118.6,49.06 C118.189331,49.06 117.852001,49.2359982 117.588,49.588 C117.323999,49.9400018 117.192,50.5266626 117.192,51.348 C117.192,52.1693374 117.323999,52.7559982 117.588,53.108 C117.852001,53.4600018 118.189331,53.636 118.6,53.636 L118.6,49.06 Z M128.104,53.636 C128.514669,53.636 128.851999,53.4600018 129.116,53.108 C129.380001,52.7559982 129.512,52.1693374 129.512,51.348 C129.512,50.5266626 129.380001,49.9400018 129.116,49.588 C128.851999,49.2359982 128.514669,49.06 128.104,49.06 L128.104,53.636 Z M165.856,66 L156.66,66 L156.66,54.736 L148.608,66 L140.864,66 L140.864,36.652 L150.06,36.652 L150.06,47.96 L158.156,36.652 L165.856,36.652 L165.856,66 Z M168.276,51.348 C168.276,49.0013216 168.686663,46.8820095 169.508,44.99 C170.329337,43.0979905 171.443993,41.4773401 172.852,40.128 C174.260007,38.7786599 175.902657,37.7446703 177.78,37.026 C179.657343,36.3073297 181.651989,35.948 183.764,35.948 C185.436008,35.948 186.92466,36.1093317 188.23,36.432 C189.53534,36.7546683 190.657329,37.1213313 191.596,37.532 C192.681339,38.0013357 193.619996,38.5146639 194.412,39.072 L189.792,47.212 C189.322664,46.8599982 188.809336,46.5226683 188.252,46.2 C187.753331,45.9653322 187.159337,45.7380011 186.47,45.518 C185.780663,45.2979989 184.996004,45.188 184.116,45.188 C183.206662,45.188 182.37067,45.3493317 181.608,45.672 C180.84533,45.9946683 180.178003,46.4346639 179.606,46.992 C179.033997,47.5493361 178.586668,48.2019963 178.264,48.95 C177.941332,49.6980037 177.78,50.4973291 177.78,51.348 C177.78,52.1986709 177.948665,52.9979963 178.286,53.746 C178.623335,54.4940037 179.08533,55.1466639 179.672,55.704 C180.25867,56.2613361 180.947996,56.7013317 181.74,57.024 C182.532004,57.3466683 183.397329,57.508 184.336,57.508 C185.274671,57.508 186.110663,57.3906678 186.844,57.156 C187.577337,56.9213322 188.193331,56.6573348 188.692,56.364 C189.27867,56.0413317 189.791998,55.6600022 190.232,55.22 L194.852,63.36 C194.059996,64.0053366 193.121339,64.5773308 192.036,65.076 C191.097329,65.4866687 189.968007,65.8679982 188.648,66.22 C187.327993,66.5720018 185.817342,66.748 184.116,66.748 C181.827989,66.748 179.71601,66.3740037 177.78,65.626 C175.84399,64.8779963 174.172007,63.8293401 172.764,62.48 C171.355993,61.1306599 170.256004,59.5100095 169.464,57.618 C168.671996,55.7259905 168.276,53.6360114 168.276,51.348 Z M204.752,36.652 L214.256,36.652 L214.256,42.196 L219.008,36.652 L231.284,36.652 L217.82,51.084 L231.812,66 L219.008,66 L214.256,60.236 L214.256,66 L204.752,66 L204.752,36.652 Z M241.404,36.652 L248.444,36.652 L259.576,66 L250.336,66 L249.368,63.36 L240.48,63.36 L239.512,66 L230.272,66 L241.404,36.652 Z M246.904,56.892 L244.924,51.744 L242.944,56.892 L246.904,56.892 Z M260.236,36.652 L269.74,36.652 L269.74,42.196 L274.492,36.652 L286.768,36.652 L273.304,51.084 L287.296,66 L274.492,66 L269.74,60.236 L269.74,66 L260.236,66 L260.236,36.652 Z M287.516,51.348 C287.516,49.2359894 287.919329,47.2413427 288.726,45.364 C289.532671,43.4866573 290.63266,41.8513403 292.026,40.458 C293.41934,39.0646597 295.054657,37.9646707 296.932,37.158 C298.809343,36.3513293 300.803989,35.948 302.916,35.948 C305.028011,35.948 307.022657,36.3513293 308.9,37.158 C310.777343,37.9646707 312.41266,39.0646597 313.806,40.458 C315.19934,41.8513403 316.299329,43.4866573 317.106,45.364 C317.912671,47.2413427 318.316,49.2359894 318.316,51.348 C318.316,53.4600106 317.912671,55.4546573 317.106,57.332 C316.299329,59.2093427 315.19934,60.8446597 313.806,62.238 C312.41266,63.6313403 310.777343,64.7313293 308.9,65.538 C307.022657,66.3446707 305.028011,66.748 302.916,66.748 C300.803989,66.748 298.809343,66.3446707 296.932,65.538 C295.054657,64.7313293 293.41934,63.6313403 292.026,62.238 C290.63266,60.8446597 289.532671,59.2093427 288.726,57.332 C287.919329,55.4546573 287.516,53.4600106 287.516,51.348 Z M296.756,51.348 C296.756,52.1986709 296.917332,52.9979963 297.24,53.746 C297.562668,54.4940037 298.002664,55.1466639 298.56,55.704 C299.117336,56.2613361 299.769996,56.7013317 300.518,57.024 C301.266004,57.3466683 302.065329,57.508 302.916,57.508 C303.766671,57.508 304.565996,57.3466683 305.314,57.024 C306.062004,56.7013317 306.714664,56.2613361 307.272,55.704 C307.829336,55.1466639 308.269332,54.4940037 308.592,53.746 C308.914668,52.9979963 309.076,52.1986709 309.076,51.348 C309.076,50.4973291 308.914668,49.6980037 308.592,48.95 C308.269332,48.2019963 307.829336,47.5493361 307.272,46.992 C306.714664,46.4346639 306.062004,45.9946683 305.314,45.672 C304.565996,45.3493317 303.766671,45.188 302.916,45.188 C302.065329,45.188 301.266004,45.3493317 300.518,45.672 C299.769996,45.9946683 299.117336,46.4346639 298.56,46.992 C298.002664,47.5493361 297.562668,48.2019963 297.24,48.95 C296.917332,49.6980037 296.756,50.4973291 296.756,51.348 Z M345.728,66 L336.532,66 L336.532,54.736 L328.48,66 L320.736,66 L320.736,36.652 L329.932,36.652 L329.932,47.96 L338.028,36.652 L345.728,36.652 L345.728,66 Z M333.232,35.156 C332.029327,35.156 331.017337,34.9213357 330.196,34.452 C329.374663,33.9826643 328.722002,33.4033368 328.238,32.714 C327.753998,32.0246632 327.409334,31.2986705 327.204,30.536 C326.998666,29.7733295 326.896,29.0986696 326.896,28.512 L330.856,28.512 C330.914667,29.0106692 331.017333,29.3919987 331.164,29.656 C331.310667,29.9493348 331.545332,30.2133322 331.868,30.448 C332.190668,30.6826678 332.64533,30.8 333.232,30.8 C333.81867,30.8 334.265998,30.6826678 334.574,30.448 C334.882002,30.2133322 335.109333,29.9493348 335.256,29.656 C335.461334,29.3333317 335.578667,28.9520022 335.608,28.512 L339.568,28.512 C339.568,29.0986696 339.465334,29.7733295 339.26,30.536 C339.054666,31.2986705 338.710002,32.0246632 338.226,32.714 C337.741998,33.4033368 337.089337,33.9826643 336.268,34.452 C335.446663,34.9213357 334.434673,35.156 333.232,35.156 Z M348.368,47.652 L359.984,47.652 L359.984,55 L348.368,55 L348.368,47.652 Z M366.496,44.352 L361.084,44.352 L361.084,36.652 L381.588,36.652 L381.588,44.352 L376.176,44.352 L376.176,66 L366.496,66 L366.496,44.352 Z M382.468,51.348 C382.468,49.2359894 382.871329,47.2413427 383.678,45.364 C384.484671,43.4866573 385.58466,41.8513403 386.978,40.458 C388.37134,39.0646597 390.006657,37.9646707 391.884,37.158 C393.761343,36.3513293 395.755989,35.948 397.868,35.948 C399.980011,35.948 401.974657,36.3513293 403.852,37.158 C405.729343,37.9646707 407.36466,39.0646597 408.758,40.458 C410.15134,41.8513403 411.251329,43.4866573 412.058,45.364 C412.864671,47.2413427 413.268,49.2359894 413.268,51.348 C413.268,53.4600106 412.864671,55.4546573 412.058,57.332 C411.251329,59.2093427 410.15134,60.8446597 408.758,62.238 C407.36466,63.6313403 405.729343,64.7313293 403.852,65.538 C401.974657,66.3446707 399.980011,66.748 397.868,66.748 C395.755989,66.748 393.761343,66.3446707 391.884,65.538 C390.006657,64.7313293 388.37134,63.6313403 386.978,62.238 C385.58466,60.8446597 384.484671,59.2093427 383.678,57.332 C382.871329,55.4546573 382.468,53.4600106 382.468,51.348 Z M391.708,51.348 C391.708,52.1986709 391.869332,52.9979963 392.192,53.746 C392.514668,54.4940037 392.954664,55.1466639 393.512,55.704 C394.069336,56.2613361 394.721996,56.7013317 395.47,57.024 C396.218004,57.3466683 397.017329,57.508 397.868,57.508 C398.718671,57.508 399.517996,57.3466683 400.266,57.024 C401.014004,56.7013317 401.666664,56.2613361 402.224,55.704 C402.781336,55.1466639 403.221332,54.4940037 403.544,53.746 C403.866668,52.9979963 404.028,52.1986709 404.028,51.348 C404.028,50.4973291 403.866668,49.6980037 403.544,48.95 C403.221332,48.2019963 402.781336,47.5493361 402.224,46.992 C401.666664,46.4346639 401.014004,45.9946683 400.266,45.672 C399.517996,45.3493317 398.718671,45.188 397.868,45.188 C397.017329,45.188 396.218004,45.3493317 395.47,45.672 C394.721996,45.9946683 394.069336,46.4346639 393.512,46.992 C392.954664,47.5493361 392.514668,48.2019963 392.192,48.95 C391.869332,49.6980037 391.708,50.4973291 391.708,51.348 Z M424.488,36.652 L433.992,36.652 L433.992,42.196 L438.744,36.652 L451.02,36.652 L437.556,51.084 L451.548,66 L438.744,66 L433.992,60.236 L433.992,66 L424.488,66 L424.488,36.652 Z M451.768,51.348 C451.768,49.2359894 452.171329,47.2413427 452.978,45.364 C453.784671,43.4866573 454.88466,41.8513403 456.278,40.458 C457.67134,39.0646597 459.306657,37.9646707 461.184,37.158 C463.061343,36.3513293 465.055989,35.948 467.168,35.948 C469.280011,35.948 471.274657,36.3513293 473.152,37.158 C475.029343,37.9646707 476.66466,39.0646597 478.058,40.458 C479.45134,41.8513403 480.551329,43.4866573 481.358,45.364 C482.164671,47.2413427 482.568,49.2359894 482.568,51.348 C482.568,53.4600106 482.164671,55.4546573 481.358,57.332 C480.551329,59.2093427 479.45134,60.8446597 478.058,62.238 C476.66466,63.6313403 475.029343,64.7313293 473.152,65.538 C471.274657,66.3446707 469.280011,66.748 467.168,66.748 C465.055989,66.748 463.061343,66.3446707 461.184,65.538 C459.306657,64.7313293 457.67134,63.6313403 456.278,62.238 C454.88466,60.8446597 453.784671,59.2093427 452.978,57.332 C452.171329,55.4546573 451.768,53.4600106 451.768,51.348 Z M461.008,51.348 C461.008,52.1986709 461.169332,52.9979963 461.492,53.746 C461.814668,54.4940037 462.254664,55.1466639 462.812,55.704 C463.369336,56.2613361 464.021996,56.7013317 464.77,57.024 C465.518004,57.3466683 466.317329,57.508 467.168,57.508 C468.018671,57.508 468.817996,57.3466683 469.566,57.024 C470.314004,56.7013317 470.966664,56.2613361 471.524,55.704 C472.081336,55.1466639 472.521332,54.4940037 472.844,53.746 C473.166668,52.9979963 473.328,52.1986709 473.328,51.348 C473.328,50.4973291 473.166668,49.6980037 472.844,48.95 C472.521332,48.2019963 472.081336,47.5493361 471.524,46.992 C470.966664,46.4346639 470.314004,45.9946683 469.566,45.672 C468.817996,45.3493317 468.018671,45.188 467.168,45.188 C466.317329,45.188 465.518004,45.3493317 464.77,45.672 C464.021996,45.9946683 463.369336,46.4346639 462.812,46.992 C462.254664,47.5493361 461.814668,48.2019963 461.492,48.95 C461.169332,49.6980037 461.008,50.4973291 461.008,51.348 Z M484.988,36.652 L492.732,36.652 L500.388,47.916 L508,36.652 L515.744,36.652 L515.744,66 L506.372,66 L506.372,55.44 L500.388,64.24 L494.36,55.44 L494.36,66 L484.988,66 L484.988,36.652 Z M518.824,36.652 L542.848,36.652 L542.848,66 L533.432,66 L533.432,45.144 L528.196,45.144 L528.196,66 L518.824,66 L518.824,36.652 Z M554.64,36.652 L561.68,36.652 L572.812,66 L563.572,66 L562.604,63.36 L553.716,63.36 L552.748,66 L543.508,66 L554.64,36.652 Z M560.14,56.892 L558.16,51.744 L556.18,56.892 L560.14,56.892 Z M573.472,36.652 L582.844,36.652 L582.844,46.64 L588.08,46.64 L588.08,36.652 L597.496,36.652 L597.496,66 L588.08,66 L588.08,55.132 L582.844,55.132 L582.844,66 L573.472,66 L573.472,36.652 Z M625.568,66 L616.372,66 L616.372,54.736 L608.32,66 L600.576,66 L600.576,36.652 L609.772,36.652 L609.772,47.96 L617.868,36.652 L625.568,36.652 L625.568,66 Z M653.64,66 L644.444,66 L644.444,54.736 L636.392,66 L628.648,66 L628.648,36.652 L637.844,36.652 L637.844,47.96 L645.94,36.652 L653.64,36.652 L653.64,66 Z" id="---" fill="#52B7D9"></path>
            </g>
            <use id="Rectangle-27" stroke="#CCCCCC" mask="url(#mask-4)" stroke-width="6" fill="#D8D8D8" xlink:href="#path-3"></use>
            <path d="M681.22,307.992 L687.484,307.992 C688.284004,307.992 689.015997,308.083999 689.68,308.268 C690.344003,308.452001 690.911998,308.723998 691.384,309.084 C691.856002,309.444002 692.223999,309.891997 692.488,310.428 C692.752001,310.964003 692.884,311.591996 692.884,312.312 C692.884,312.824003 692.820001,313.259998 692.692,313.62 C692.563999,313.980002 692.428001,314.279999 692.284,314.52 C692.107999,314.808001 691.908001,315.047999 691.684,315.24 C692.036002,315.464001 692.355999,315.751998 692.644,316.104 C692.884001,316.408002 693.103999,316.791998 693.304,317.256 C693.504001,317.720002 693.604,318.287997 693.604,318.96 C693.604,319.728004 693.468001,320.423997 693.196,321.048 C692.923999,321.672003 692.536003,322.203998 692.032,322.644 C691.527997,323.084002 690.912004,323.419999 690.184,323.652 C689.455996,323.884001 688.644004,324 687.748,324 L681.22,324 L681.22,307.992 Z M686.74,320.232 C687.956006,320.232 688.564,319.768005 688.564,318.84 C688.564,317.911995 687.956006,317.448 686.74,317.448 L686.164,317.448 L686.164,320.232 L686.74,320.232 Z M687.94,312.864 C687.94,312.127996 687.540004,311.76 686.74,311.76 L686.164,311.76 L686.164,313.968 L686.74,313.968 C687.540004,313.968 687.94,313.600004 687.94,312.864 Z M697.924,315.72 L693.676,307.992 L699.268,307.992 L700.708,310.608 L702.148,307.992 L707.764,307.992 L703.516,315.72 L708.076,324 L702.484,324 L700.708,320.808 L698.956,324 L693.364,324 L697.924,315.72 Z M708.076,316.008 C708.076,314.855994 708.295998,313.768005 708.736,312.744 C709.176002,311.719995 709.775996,310.828004 710.536,310.068 C711.296004,309.307996 712.187995,308.708002 713.212,308.268 C714.236005,307.827998 715.323994,307.608 716.476,307.608 C717.628006,307.608 718.715995,307.827998 719.74,308.268 C720.764005,308.708002 721.655996,309.307996 722.416,310.068 C723.176004,310.828004 723.775998,311.719995 724.216,312.744 C724.656002,313.768005 724.876,314.855994 724.876,316.008 C724.876,317.160006 724.656002,318.247995 724.216,319.272 C723.775998,320.296005 723.176004,321.187996 722.416,321.948 C721.655996,322.708004 720.764005,323.307998 719.74,323.748 C718.715995,324.188002 717.628006,324.408 716.476,324.408 C715.323994,324.408 714.236005,324.188002 713.212,323.748 C712.187995,323.307998 711.296004,322.708004 710.536,321.948 C709.775996,321.187996 709.176002,320.296005 708.736,319.272 C708.295998,318.247995 708.076,317.160006 708.076,316.008 Z M713.116,316.008 C713.116,316.472002 713.203999,316.907998 713.38,317.316 C713.556001,317.724002 713.795998,318.079998 714.1,318.384 C714.404002,318.688002 714.759998,318.927999 715.168,319.104 C715.576002,319.280001 716.011998,319.368 716.476,319.368 C716.940002,319.368 717.375998,319.280001 717.784,319.104 C718.192002,318.927999 718.547998,318.688002 718.852,318.384 C719.156002,318.079998 719.395999,317.724002 719.572,317.316 C719.748001,316.907998 719.836,316.472002 719.836,316.008 C719.836,315.543998 719.748001,315.108002 719.572,314.7 C719.395999,314.291998 719.156002,313.936002 718.852,313.632 C718.547998,313.327998 718.192002,313.088001 717.784,312.912 C717.375998,312.735999 716.940002,312.648 716.476,312.648 C716.011998,312.648 715.576002,312.735999 715.168,312.912 C714.759998,313.088001 714.404002,313.327998 714.1,313.632 C713.795998,313.936002 713.556001,314.291998 713.38,314.7 C713.203999,315.108002 713.116,315.543998 713.116,316.008 Z M725.452,319.656 L728.884,319.656 C729.172001,319.479999 729.427999,319.200002 729.652,318.816 C729.876001,318.431998 730.063999,317.908003 730.216,317.244 C730.368001,316.579997 730.484,315.756005 730.564,314.772 C730.644,313.787995 730.684,312.608007 730.684,311.232 C730.684,310.751998 730.676,310.244003 730.66,309.708 C730.644,309.171997 730.62,308.600003 730.588,307.992 L742.276,307.992 L742.276,319.656 L743.524,319.656 L743.524,327.672 L738.748,327.672 L738.748,324 L729.988,324 L729.988,327.672 L725.452,327.672 L725.452,319.656 Z M735.916,312.984 C735.916,315.736014 735.692002,317.935992 735.244,319.584 L736.852,319.584 L736.852,312.984 L735.916,312.984 Z" id="" fill="#4D4949"></path>
            <rect id="Rectangle-29" fill-opacity="0.103855299" fill="#000000" x="40" y="108" width="816" height="40"></rect>
            <path d="M115.076287,580.851741 C114.429438,577.6011 116.588848,574.965935 119.903307,574.965935 L511.472774,574.965935 C514.785513,574.965935 516.937808,577.598326 516.278804,580.851741 L504.679863,638.114194 C504.021422,641.364835 500.809646,644 497.489086,644 L133.640804,644 C130.327889,644 127.116331,641.357119 126.471017,638.114194 L115.076287,580.851741 Z" id="Rectangle-32" fill-opacity="0.15" fill="#000000"></path>
            <g id="Group-14-Copy" transform="translate(122.000000, 503.000000)">
                <path d="M203.314405,27.5366968 C209.1558,22.6252 217.049704,19.6119403 225.737822,19.6119403 C233.322828,19.6119403 240.302496,21.9086014 245.83954,25.7599743 C247.387364,25.2542843 249.006066,24.9859724 250.672222,24.9859724 C257.146204,24.9859724 262.903733,29.0368717 266.57066,35.3239825 C269.879026,23.6637785 282.382351,14.9915834 297.301389,14.9915834 C314.20151,14.9915834 328.001762,26.119837 328.847786,40.1137723 C329.520731,40.0236966 330.203508,39.9775558 330.894444,39.9775558 C337.936261,39.9775558 344.130434,44.7702308 347.708588,52.0202861 C348.117354,51.9874698 348.529427,51.9708226 348.944444,51.9708226 C360.020822,51.9708226 369,63.8286195 369,78.4559533 C369,93.0832871 360.020822,104.941084 348.944444,104.941084 C341.902627,104.941084 335.708455,100.148409 332.130301,92.8983538 C331.721535,92.9311701 331.309462,92.9478173 330.894444,92.9478173 C330.803406,92.9478173 330.71251,92.9470163 330.621759,92.9454192 C328.581369,105.920556 315.338948,115.934912 299.306944,115.934912 C292.595373,115.934912 286.372692,114.179836 281.256111,111.187194 C277.871207,116.661287 272.860916,120.313826 267.197599,120.860728 C263.88461,135.043094 241.954239,146 215.393983,146 C194.613462,146 176.667064,139.292877 168.253826,129.581457 C163.00597,139.292874 151.81168,146 138.84957,146 C121.738514,146 107.708092,134.31204 106.370782,119.454106 C105.457133,119.186209 104.562639,118.884106 103.689485,118.549628 C95.2830592,127.086771 78.2653634,132.925373 58.6402778,132.925373 C30.6724246,132.925373 8,121.067576 8,106.440242 C8,101.905666 10.1789191,97.6372538 14.0190439,93.9057733 C10.2354322,89.1204251 8,83.2098279 8,76.8134328 C8,60.8672411 21.8932841,47.9402985 39.0315186,47.9402985 C40.8121129,47.9402985 42.55768,48.0798369 44.2562778,48.3478022 C47.8595911,43.7825797 52.7511386,40.9769947 58.1388889,40.9769947 C63.560606,40.9769947 68.4798441,43.8180666 72.089497,48.4343555 C75.6069409,44.4108819 80.1951336,41.9764336 85.2138889,41.9764336 C86.9952931,41.9764336 88.7224511,42.2831475 90.3667339,42.8587681 C91.3680008,29.941696 97.6586109,19.9887779 105.269444,19.9887779 C113.576728,19.9887779 120.311111,31.8465748 120.311111,46.4739087 C120.311111,47.8788624 120.248983,49.2582655 120.129299,50.6040648 C120.79246,51.0331275 121.436597,51.5097743 122.05946,52.0308643 C124.174242,48.1416552 127.067341,45.0402651 130.43779,43.124144 C130.372378,42.253564 130.338889,41.3705844 130.338889,40.4772753 C130.338889,31.4219087 133.780155,23.427966 139.029878,18.6517183 C140.926816,7.84855532 146.644254,0 153.402778,0 C160.496007,0 166.442481,8.64517887 168.029059,20.2778914 C169.458712,19.8417523 170.943651,19.6119403 172.467049,19.6119403 C182.581614,19.6119403 191.000821,29.7426683 192.799653,43.1304364 C195.430194,35.6513132 199.097013,30.0903342 203.314405,27.5366968 Z M90.6488934,85.9157385 C91.0854378,86.1021856 91.515923,86.2923668 91.9401711,86.4861887 C91.3653356,84.2292068 90.9859755,81.8429331 90.8305173,79.3670417 C90.5069301,79.7580924 90.1955832,80.1568021 89.8969413,80.562781 C90.2635804,82.2852937 90.5181626,84.0750998 90.6488934,85.9157385 Z M106.370782,119.454106 C105.457133,119.186209 104.562639,118.884106 103.689485,118.549628 C104.694638,117.528845 105.576677,116.469482 106.325338,115.376905 C106.286283,115.955795 106.266476,116.539281 106.266476,117.126866 C106.266476,117.910292 106.301686,118.68643 106.370782,119.454106 Z M270.356083,56.5724899 C270.591387,56.4571897 270.82863,56.3443681 271.06776,56.2340678 C270.872993,55.9911373 270.682899,55.7453531 270.497585,55.496806 C270.455898,55.8578158 270.408691,56.2164287 270.356083,56.5724899 Z" id="Combined-Shape" fill-opacity="0.150673687" fill="#000000"></path>
                <path d="M233.155618,70.9294611 C230.683733,66.8491168 229.216667,61.759654 229.216667,56.2406015 C229.216667,42.8155143 237.897368,31.9323308 248.605556,31.9323308 C254.864336,31.9323308 260.430479,35.6502795 263.975513,41.4206415 C267.173906,30.7188104 279.261608,22.7593985 293.684722,22.7593985 C310.023066,22.7593985 323.364584,32.9730011 324.182486,45.8167499 C324.833062,45.7340777 325.493142,45.6917293 326.161111,45.6917293 C332.968851,45.6917293 338.957123,50.0904858 342.416335,56.7446461 C342.811514,56.714527 343.209889,56.6992481 343.611111,56.6992481 C354.319299,56.6992481 363,67.5824316 363,81.0075188 C363,94.432606 354.319299,105.315789 343.611111,105.315789 C336.803371,105.315789 330.815099,100.917033 327.355887,94.2628727 C326.960708,94.2929918 326.562333,94.3082707 326.161111,94.3082707 C326.073099,94.3082707 325.985224,94.3075355 325.89749,94.3060697 C323.924925,106.214757 311.122695,115.406015 295.623611,115.406015 C289.135139,115.406015 283.119306,113.795192 278.172805,111.048521 C274.617348,116.507293 269.206922,119.992481 263.147222,119.992481 C257.90573,119.992481 253.150013,117.384924 249.660349,113.148058 C246.259828,116.84083 241.82415,119.075188 236.972222,119.075188 C229.636581,119.075188 223.252425,113.967784 219.958691,106.434608 C216.646782,112.050213 212.451914,115.406015 207.888889,115.406015 C203.643927,115.406015 199.717585,112.501737 196.524346,107.575595 C191.137304,114.478871 181.525606,119.075188 170.565278,119.075188 C160.026169,119.075188 150.734023,114.825367 145.245858,108.361148 C143.982065,110.003898 142.48002,111.517919 140.777996,112.872754 C142.48002,111.517919 143.982065,110.003898 145.245862,108.361153 C142.051723,104.598945 140.146106,100.086661 140.033105,95.225563 C140.031329,95.2255636 140.029553,95.2255639 140.027778,95.2255639 C129.449069,95.2255639 120.849113,84.6039799 120.642685,71.4031567 C120.159549,71.3850798 119.673477,71.3759398 119.184722,71.3759398 C118.266226,71.3759398 117.3572,71.4082187 116.459338,71.471429 C114.082683,74.2993216 111.175582,75.962406 108.036111,75.962406 C106.476296,75.962406 104.97384,75.5518731 103.565303,74.7919185 C97.8251014,77.517017 93.3026615,81.6985345 90.802828,86.6958036 C103.559054,91.0835569 111.913889,98.4031911 111.913889,106.691729 C111.913889,110.696412 109.963513,114.474911 106.508671,117.805823 C110.369747,119.209991 114.662437,119.992481 119.184722,119.992481 C127.61742,119.992481 135.251795,117.271685 140.777996,112.872754 C135.251795,117.271685 127.61742,119.992481 119.184722,119.992481 C114.662437,119.992481 110.369747,119.209991 106.508671,117.805823 C98.3816832,125.641283 81.9296726,131 62.9569444,131 C35.9187706,131 14,120.116817 14,106.691729 C14,96.2149169 27.3487407,87.2861482 46.0620648,83.8697443 C44.1751709,80.1200291 43.0833333,75.6785184 43.0833333,70.9172932 C43.0833333,57.492206 51.7640346,46.6090226 62.4722222,46.6090226 C67.7137161,46.6090226 72.4694338,49.2165817 75.9590982,53.4534496 C79.3596188,49.7606724 83.7952954,47.5263158 88.6472222,47.5263158 C90.3694108,47.5263158 92.0391563,47.8078203 93.6287815,48.3361296 C94.5967653,36.4807347 100.678269,27.3458647 108.036111,27.3458647 C116.067252,27.3458647 122.577778,38.2290481 122.577778,51.6541353 C122.577778,59.8311928 120.162451,67.0652345 116.459338,71.471429 C117.3572,71.4082187 118.266226,71.3759398 119.184722,71.3759398 C119.673477,71.3759398 120.159549,71.3850798 120.642685,71.4031567 C120.640158,71.2415837 120.638889,71.0796243 120.638889,70.9172932 C120.638889,60.9030228 125.469023,52.3031238 132.367836,48.5796938 C132.304599,47.7806684 132.272222,46.9702624 132.272222,46.1503759 C132.272222,37.8392861 135.599098,30.5023798 140.674314,26.1187004 C142.508196,16.2034686 148.03558,9 154.569444,9 C162.508928,9 168.962307,19.6361866 169.108575,32.8496243 C179.819299,32.8496241 188.5,43.7328075 188.5,57.1578947 C188.5,63.1576615 186.766239,68.6497442 183.892575,72.8896088 C185.515654,73.5172828 187.058396,74.2560355 188.505201,75.0934498 C188.50174,74.772465 188.5,74.4505749 188.5,74.1278195 C188.5,51.3305017 197.180701,32.8496241 207.888889,32.8496241 C218.531795,32.8496241 227.171861,51.105856 227.276811,73.7113613 C229.073951,72.4078323 231.053464,71.4555703 233.155618,70.9294611 Z M267.635105,60.9226962 C267.862587,60.8168727 268.091944,60.7133241 268.323126,60.6120896 C268.134833,60.389126 267.951057,60.1635433 267.771904,59.9354247 C267.731602,60.2667624 267.685964,60.5959003 267.635105,60.9226962 Z" id="Combined-Shape" fill="#87CC3D"></path>
                <ellipse id="Oval-11" fill="#8AD13E" cx="173" cy="53.5" rx="20" ry="26.5"></ellipse>
                <ellipse id="Oval-11" fill="#8AD13E" cx="114" cy="79.5" rx="20" ry="26.5"></ellipse>
                <ellipse id="Oval-11" fill="#8AD13E" cx="44" cy="79.5" rx="30" ry="26.5"></ellipse>
                <ellipse id="Oval-11" fill="#82C53B" cx="195" cy="79.5" rx="20" ry="26.5"></ellipse>
                <ellipse id="Oval-11" fill="#8AD13E" transform="translate(214.500000, 116.500000) scale(1, -1) translate(-214.500000, -116.500000) " cx="214.5" cy="116.5" rx="50.5" ry="26.5"></ellipse>
                <ellipse id="Oval-11" fill="#84C73B" cx="140.5" cy="116.5" rx="31.5" ry="26.5"></ellipse>
                <ellipse id="Oval-11" fill="#84C73B" cx="74" cy="90.5" rx="20" ry="26.5"></ellipse>
                <ellipse id="Oval-11" fill="#8CD43F" cx="303" cy="63.5" rx="20" ry="26.5"></ellipse>
                <ellipse id="Oval-11" fill="#8AD13E" cx="224.5" cy="53.5" rx="31.5" ry="26.5"></ellipse>
                <path d="M0.848866713,85.8704342 C0.178586893,82.6282829 2.31978731,80 5.64112721,80 L379.688139,80 C383.005111,80 385.181186,82.644788 384.552323,85.8877817 L369.383473,164.112218 C368.752915,167.36395 365.551096,170 362.240481,170 L24.2430138,170 C20.9286058,170 17.6974714,167.367331 17.0280983,164.129566 L0.848866713,85.8704342 Z" id="Rectangle-30" fill="#665D5D"></path>
                <path d="M2.14770259,85.8522616 C1.41166159,82.6201468 3.4983442,80 6.80811442,80 L378.821851,80 C382.131766,80 384.383642,82.653714 383.851995,85.9245365 L382.20204,96.0754635 C381.670196,99.3474947 378.551155,102 375.247373,102 L11.8166636,102 C8.50755062,102 5.23059755,99.3899186 4.4922644,96.1477384 L2.14770259,85.8522616 Z" id="Rectangle-31" fill-opacity="0.0992130888" fill="#000000"></path>
            </g>
            <g id="Group-17" transform="translate(0.000000, 3.000000)" stroke-width="2">
                <g id="Group-16" transform="translate(0.000000, 33.000000)" stroke="#666666" fill="#3F3D3D">
                    <use id="Rectangle" mask="url(#mask-6)" xlink:href="#path-5"></use>
                    <use id="Rectangle" mask="url(#mask-8)" xlink:href="#path-7"></use>
                    <use id="Rectangle" mask="url(#mask-10)" xlink:href="#path-9"></use>
                    <use id="Rectangle" mask="url(#mask-12)" xlink:href="#path-11"></use>
                    <use id="Rectangle" mask="url(#mask-14)" xlink:href="#path-13"></use>
                    <use id="Rectangle" mask="url(#mask-16)" xlink:href="#path-15"></use>
                    <use id="Rectangle" mask="url(#mask-18)" xlink:href="#path-17"></use>
                    <use id="Rectangle" mask="url(#mask-20)" xlink:href="#path-19"></use>
                    <use id="Rectangle" mask="url(#mask-22)" xlink:href="#path-21"></use>
                    <use id="Rectangle" mask="url(#mask-24)" xlink:href="#path-23"></use>
                    <use id="Rectangle" mask="url(#mask-26)" xlink:href="#path-25"></use>
                    <use id="Rectangle" mask="url(#mask-28)" xlink:href="#path-27"></use>
                    <use id="Rectangle" mask="url(#mask-30)" xlink:href="#path-29"></use>
                    <use id="Rectangle" mask="url(#mask-32)" xlink:href="#path-31"></use>
                    <use id="Rectangle" mask="url(#mask-34)" xlink:href="#path-33"></use>
                    <use id="Rectangle" mask="url(#mask-36)" xlink:href="#path-35"></use>
                    <use id="Rectangle" mask="url(#mask-38)" xlink:href="#path-37"></use>
                    <use id="Rectangle" mask="url(#mask-40)" xlink:href="#path-39"></use>
                    <use id="Rectangle" mask="url(#mask-42)" xlink:href="#path-41"></use>
                    <use id="Rectangle" mask="url(#mask-44)" xlink:href="#path-43"></use>
                    <use id="Rectangle" mask="url(#mask-46)" xlink:href="#path-45"></use>
                    <use id="Rectangle" mask="url(#mask-48)" xlink:href="#path-47"></use>
                    <use id="Rectangle" mask="url(#mask-50)" xlink:href="#path-49"></use>
                </g>
                <g id="Group-14" transform="translate(1.000000, 17.000000)" stroke="#595959" fill="#4C4949">
                    <use id="Rectangle" mask="url(#mask-52)" xlink:href="#path-51"></use>
                    <use id="Rectangle" mask="url(#mask-54)" xlink:href="#path-53"></use>
                    <use id="Rectangle" mask="url(#mask-56)" xlink:href="#path-55"></use>
                    <use id="Rectangle" mask="url(#mask-58)" xlink:href="#path-57"></use>
                    <use id="Rectangle" mask="url(#mask-60)" xlink:href="#path-59"></use>
                    <use id="Rectangle" mask="url(#mask-62)" xlink:href="#path-61"></use>
                    <use id="Rectangle" mask="url(#mask-64)" xlink:href="#path-63"></use>
                    <use id="Rectangle" mask="url(#mask-66)" xlink:href="#path-65"></use>
                    <use id="Rectangle" mask="url(#mask-68)" xlink:href="#path-67"></use>
                    <use id="Rectangle" mask="url(#mask-70)" xlink:href="#path-69"></use>
                    <use id="Rectangle" mask="url(#mask-72)" xlink:href="#path-71"></use>
                    <use id="Rectangle" mask="url(#mask-74)" xlink:href="#path-73"></use>
                    <use id="Rectangle" mask="url(#mask-76)" xlink:href="#path-75"></use>
                    <use id="Rectangle" mask="url(#mask-78)" xlink:href="#path-77"></use>
                    <use id="Rectangle" mask="url(#mask-80)" xlink:href="#path-79"></use>
                    <use id="Rectangle" mask="url(#mask-82)" xlink:href="#path-81"></use>
                    <use id="Rectangle" mask="url(#mask-84)" xlink:href="#path-83"></use>
                    <use id="Rectangle" mask="url(#mask-86)" xlink:href="#path-85"></use>
                    <use id="Rectangle" mask="url(#mask-88)" xlink:href="#path-87"></use>
                    <use id="Rectangle" mask="url(#mask-90)" xlink:href="#path-89"></use>
                    <use id="Rectangle" mask="url(#mask-92)" xlink:href="#path-91"></use>
                    <use id="Rectangle" mask="url(#mask-94)" xlink:href="#path-93"></use>
                    <use id="Rectangle" mask="url(#mask-96)" xlink:href="#path-95"></use>
                </g>
                <g id="Group-15" transform="translate(3.000000, 0.000000)" stroke="#666666" fill="#545151">
                    <use id="Rectangle" mask="url(#mask-98)" xlink:href="#path-97"></use>
                    <use id="Rectangle" mask="url(#mask-100)" xlink:href="#path-99"></use>
                    <use id="Rectangle" mask="url(#mask-102)" xlink:href="#path-101"></use>
                    <use id="Rectangle" mask="url(#mask-104)" xlink:href="#path-103"></use>
                    <use id="Rectangle" mask="url(#mask-106)" xlink:href="#path-105"></use>
                    <use id="Rectangle" mask="url(#mask-108)" xlink:href="#path-107"></use>
                    <use id="Rectangle" mask="url(#mask-110)" xlink:href="#path-109"></use>
                    <use id="Rectangle" mask="url(#mask-112)" xlink:href="#path-111"></use>
                    <use id="Rectangle" mask="url(#mask-114)" xlink:href="#path-113"></use>
                    <use id="Rectangle" mask="url(#mask-116)" xlink:href="#path-115"></use>
                    <use id="Rectangle" mask="url(#mask-118)" xlink:href="#path-117"></use>
                    <use id="Rectangle" mask="url(#mask-120)" xlink:href="#path-119"></use>
                    <use id="Rectangle" mask="url(#mask-122)" xlink:href="#path-121"></use>
                    <use id="Rectangle" mask="url(#mask-124)" xlink:href="#path-123"></use>
                    <use id="Rectangle" mask="url(#mask-126)" xlink:href="#path-125"></use>
                    <use id="Rectangle" mask="url(#mask-128)" xlink:href="#path-127"></use>
                    <use id="Rectangle" mask="url(#mask-130)" xlink:href="#path-129"></use>
                    <use id="Rectangle" mask="url(#mask-132)" xlink:href="#path-131"></use>
                    <use id="Rectangle" mask="url(#mask-134)" xlink:href="#path-133"></use>
                    <use id="Rectangle" mask="url(#mask-136)" xlink:href="#path-135"></use>
                    <use id="Rectangle" mask="url(#mask-138)" xlink:href="#path-137"></use>
                    <use id="Rectangle" mask="url(#mask-140)" xlink:href="#path-139"></use>
                    <use id="Rectangle" mask="url(#mask-142)" xlink:href="#path-141"></use>
                </g>
            </g>
            <rect id="Rectangle-33" fill="#403D3D" x="31" y="0" width="835" height="8" rx="4"></rect>
            <path d="M28.8032562,11.7146949 C29.6212444,9.66312556 32.078563,8 34.2843558,8 L863.098053,8 C865.307192,8 867.724302,9.66854858 868.504589,11.7475144 L870.195417,16.2524856 C870.972225,18.3221807 869.80406,20 867.593568,20 L29.5081784,20 C27.2944087,20 26.1650665,18.3314514 26.9808925,16.2853051 L28.8032562,11.7146949 Z" id="Rectangle-33" fill-opacity="0.159958107" fill="#F9F9F9"></path>
        </g>
    </g>
</svg>